<?xml version="1.0" encoding="utf-8"?>
<!-- Generator: Adobe Illustrator 16.0.0, SVG Export Plug-In . SVG Version: 6.00 Build 0)  -->
<!DOCTYPE svg PUBLIC "-//W3C//DTD SVG 1.1//EN" "http://www.w3.org/Graphics/SVG/1.1/DTD/svg11.dtd">
<svg version="1.1" id="Layer_1" xmlns="http://www.w3.org/2000/svg" xmlns:xlink="http://www.w3.org/1999/xlink" x="0px" y="0px"
	 width="178.154px" height="83.36px" viewBox="0 0 178.154 83.36" enable-background="new 0 0 178.154 83.36" xml:space="preserve">
<g>
	<g>
		<g>
			<path fill="#00718C" d="M109.935,75.43l0.009,4.024h-1.327v-6.948h0.142l4.186,3.961l0.008-3.9h1.327v6.948h-0.142L109.935,75.43
				z"/>
		</g>
		<g>
			<g>
				<g>
					<path fill="#00718C" d="M33.128,72.519h0.734v3.229h3.709v-3.229h0.733v6.929h-0.733V76.41h-3.709v3.037h-0.734V72.519z"/>
					<path fill="#00718C" d="M38.371,79.514h-0.865v-3.037h-3.578v3.037h-0.864v-7.061h0.864v3.229h3.578v-3.229h0.865V79.514z
						 M37.637,79.382h0.603v-6.798h-0.603v3.23h-3.841v-3.23h-0.602v6.798h0.602v-3.037h3.841V79.382z"/>
				</g>
			</g>
			<g>
				<g>
					<path fill="#00718C" d="M41.259,72.519h4.219v0.652h-3.484v2.477h3.107v0.642h-3.107v2.507h3.627v0.651h-4.361V72.519z"/>
					<path fill="#00718C" d="M45.687,79.514h-4.493v-7.061h4.351v0.783H42.06v2.346h3.107v0.772H42.06v2.376h3.627V79.514z
						 M41.326,79.382h4.229v-0.521h-3.628v-2.639h3.108v-0.51h-3.108v-2.607h3.485v-0.521h-4.087V79.382z"/>
				</g>
			</g>
			<g>
				<g>
					<path fill="#00718C" d="M50.236,72.446h0.123l2.935,7.001h-0.774l-0.632-1.559h-3.179l-0.622,1.559h-0.724L50.236,72.446z
						 M51.632,77.257l-1.069-2.649c-0.133-0.326-0.265-0.805-0.265-0.825c-0.011,0.021-0.143,0.499-0.275,0.815l-1.061,2.659H51.632
						z"/>
					<path fill="#00718C" d="M53.392,79.514h-0.918l-0.631-1.559h-3.091l-0.621,1.559h-0.866l2.927-7.133h0.21l0.018,0.041
						L53.392,79.514z M52.563,79.382h0.632l-2.88-6.87h-0.034l-2.82,6.87h0.582l0.621-1.559h3.268L52.563,79.382z M51.73,77.322
						h-2.864l1.096-2.749c0.099-0.235,0.198-0.562,0.245-0.72c0.018-0.059,0.029-0.096,0.033-0.101l0.102,0.024l0.021-0.003
						c0.007,0.036,0.131,0.489,0.261,0.809L51.73,77.322z M49.06,77.191h2.476l-1.034-2.559c-0.072-0.18-0.154-0.431-0.208-0.613
						c-0.054,0.173-0.132,0.416-0.21,0.604L49.06,77.191z"/>
				</g>
			</g>
			<g>
				<g>
					<path fill="#00718C" d="M55.728,72.519h2.079c1.447,0,2.466,0.683,2.466,2.12c0,1.019-0.561,1.682-1.457,1.956l1.691,2.853
						h-0.865l-1.59-2.73c-0.102,0.01-0.215,0.01-0.326,0.01h-1.264v2.721h-0.734V72.519z M57.767,76.095
						c1.131,0,1.742-0.479,1.742-1.456c0-1-0.622-1.468-1.742-1.468h-1.305v2.924H57.767z"/>
					<path fill="#00718C" d="M60.623,79.514h-1.02l-0.019-0.033l-1.568-2.695c-0.093,0.007-0.193,0.007-0.29,0.007h-1.198v2.722
						h-0.865v-7.061h2.145c1.608,0,2.532,0.797,2.532,2.186c0,0.977-0.506,1.682-1.425,1.993L60.623,79.514z M59.679,79.382h0.713
						l-1.676-2.825l0.08-0.025c0.91-0.278,1.411-0.951,1.411-1.893c0-1.306-0.875-2.055-2.4-2.055h-2.013v6.798h0.602V76.66h1.33
						c0.108,0,0.221,0,0.32-0.009l0.041-0.004l0.021,0.036L59.679,79.382z M57.767,76.16h-1.371v-3.055h1.371
						c1.183,0,1.808,0.529,1.808,1.533C59.575,75.634,58.95,76.16,57.767,76.16z M56.528,76.029h1.239
						c1.112,0,1.676-0.469,1.676-1.391c0-0.931-0.563-1.402-1.676-1.402h-1.239V76.029z"/>
				</g>
			</g>
			<g>
				<g>
					<path fill="#00718C" d="M63.167,72.519h0.744v6.929h-0.744V72.519z"/>
					<path fill="#00718C" d="M63.976,79.514h-0.875v-7.061h0.875V79.514z M63.232,79.382h0.613v-6.798h-0.613V79.382z"/>
				</g>
			</g>
			<g>
				<g>
					<path fill="#00718C" d="M67.976,74.627c-0.184-0.214-0.448-0.58-0.479-0.631c0,0.051,0.061,0.5,0.061,0.774v4.677h-0.692
						v-7.001h0.122l4.137,4.892c0.184,0.225,0.448,0.602,0.479,0.643c0-0.02-0.052-0.49-0.052-0.785v-4.677h0.684v7.001h-0.123
						L67.976,74.627z"/>
					<path fill="#00718C" d="M72.301,79.586h-0.219l-4.157-4.916c-0.104-0.122-0.237-0.295-0.338-0.433
						c0.018,0.163,0.037,0.376,0.037,0.533v4.743H66.8v-7.133h0.218l4.157,4.915c0.107,0.132,0.242,0.313,0.342,0.452
						c-0.014-0.167-0.03-0.386-0.03-0.553v-4.742h0.814V79.586z M72.144,79.453h0.025v-6.869h-0.551v4.611
						c0,0.231,0.031,0.57,0.045,0.715c0.004,0.04,0.006,0.065,0.006,0.07v0.195l-0.118-0.156c-0.007-0.008-0.024-0.033-0.05-0.068
						c-0.093-0.129-0.285-0.396-0.428-0.571l-4.117-4.868h-0.025v6.87h0.562v-4.611c0-0.188-0.03-0.464-0.048-0.629
						c-0.008-0.075-0.014-0.13-0.014-0.146V73.76l0.122,0.203c0.028,0.046,0.29,0.408,0.473,0.622L72.144,79.453z"/>
				</g>
			</g>
			<g>
				<g>
					<path fill="#00718C" d="M75.15,75.982c0-2.088,1.549-3.545,3.566-3.545c0.998,0,1.844,0.285,2.415,0.896l-0.499,0.499
						c-0.449-0.469-1.061-0.733-1.916-0.733c-1.631,0-2.803,1.232-2.803,2.883c0,1.651,1.182,2.885,2.863,2.885
						c0.948,0,1.621-0.285,2.049-0.632v-1.458h-2.059v-0.652h2.751v2.446c-0.509,0.499-1.437,0.958-2.741,0.958
						C76.708,79.529,75.15,78.072,75.15,75.982z"/>
					<path fill="#00718C" d="M78.777,79.596c-2.14,0-3.693-1.52-3.693-3.613c0-2.092,1.527-3.611,3.633-3.611
						c1.051,0,1.902,0.317,2.463,0.918l0.043,0.046l-0.592,0.592l-0.047-0.049c-0.459-0.479-1.07-0.713-1.867-0.713
						c-1.586,0-2.736,1.185-2.736,2.817s1.176,2.818,2.797,2.818c1.006,0,1.631-0.32,1.982-0.598v-1.359h-2.059V76.06h2.883v2.54
						l-0.02,0.019C81.265,78.912,80.393,79.596,78.777,79.596z M78.716,72.503c-2.029,0-3.501,1.464-3.501,3.479
						c0,2.018,1.498,3.48,3.562,3.48c1.533,0,2.37-0.627,2.676-0.92v-2.352h-2.62v0.521h2.059v1.555l-0.024,0.02
						c-0.363,0.295-1.021,0.646-2.09,0.646c-1.697,0-2.929-1.24-2.929-2.949s1.206-2.949,2.868-2.949
						c0.809,0,1.437,0.231,1.916,0.706l0.407-0.407C80.503,72.789,79.703,72.503,78.716,72.503z"/>
				</g>
			</g>
		</g>
		<g>
			<path fill="#00718C" d="M86.384,72.472h4.493v1.262h-3.057v1.815h2.78v1.283h-2.78v2.615h-1.437V72.472z"/>
		</g>
		<g>
			<path fill="#00718C" d="M92.113,76.004c0-2.037,1.58-3.535,3.565-3.535s3.565,1.498,3.565,3.535c0,2.035-1.58,3.534-3.565,3.534
				S92.113,78.039,92.113,76.004z M97.785,76.004c0-1.287-0.851-2.27-2.106-2.27c-1.257,0-2.107,0.982-2.107,2.27
				c0,1.285,0.851,2.269,2.107,2.269C96.934,78.272,97.785,77.289,97.785,76.004z"/>
		</g>
		<g>
			<path fill="#00718C" d="M101.145,76.955v-4.396h1.418v4.315c0,1.003,0.436,1.388,1.377,1.388c0.933,0,1.357-0.385,1.357-1.388
				v-4.315h1.418v4.396c0,1.742-1.205,2.583-2.775,2.583C102.35,79.538,101.145,78.697,101.145,76.955z"/>
		</g>
		<g>
			<path fill="#00718C" d="M116.18,72.472h2.145c2.144,0,3.672,1.426,3.672,3.487c0,2.062-1.519,3.488-3.672,3.488h-2.145V72.472z
				 M118.252,78.186c1.549,0,2.257-0.924,2.257-2.227s-0.708-2.226-2.257-2.226h-0.636v4.452H118.252z"/>
		</g>
		<g>
			<path fill="#00718C" d="M131.792,73.805h-1.965v-1.246h5.348v1.246h-1.965v5.643h-1.418V73.805z"/>
		</g>
		<g>
			<path fill="#00718C" d="M137.076,72.559h1.419v6.889h-1.419V72.559z"/>
		</g>
		<g>
			<path fill="#00718C" d="M140.307,76.004c0-2.037,1.58-3.535,3.565-3.535s3.565,1.498,3.565,3.535c0,2.035-1.58,3.534-3.565,3.534
				S140.307,78.039,140.307,76.004z M145.98,76.004c0-1.287-0.852-2.27-2.107-2.27s-2.107,0.982-2.107,2.27
				c0,1.285,0.852,2.269,2.107,2.269S145.98,77.289,145.98,76.004z"/>
		</g>
		<g>
			<path fill="#00718C" d="M150.688,75.422l0.009,4.025h-1.327v-6.949h0.142l4.186,3.961l0.008-3.9h1.327v6.949h-0.142
				L150.688,75.422z"/>
		</g>
		<g>
			<path fill="#00718C" d="M122.592,79.604h1.438l0.537-1.286h2.585l0.537,1.286h1.49l-3.098-7.188h-0.403L122.592,79.604z
				 M125.095,77.051l0.773-1.842l0.759,1.842H125.095z"/>
		</g>
		<g>
			<g>
				<path fill="#00718C" d="M175.603,41.683c0-0.72,0.569-1.306,1.275-1.306c0.705,0,1.275,0.586,1.275,1.306
					c0,0.706-0.57,1.298-1.275,1.298C176.172,42.98,175.603,42.396,175.603,41.683z M177.923,41.683c0-0.6-0.467-1.097-1.045-1.097
					c-0.571,0-1.043,0.497-1.043,1.097c0,0.594,0.472,1.089,1.043,1.089C177.457,42.771,177.923,42.269,177.923,41.683z
					 M176.465,41.045c0.105-0.016,0.226-0.022,0.353-0.022c0.361,0,0.533,0.181,0.533,0.405c0,0.158-0.083,0.315-0.239,0.376
					l0.33,0.503h-0.277l-0.278-0.451c-0.037,0.008-0.068,0.008-0.083,0.008l-0.099-0.008v0.451h-0.239V41.045z M176.705,41.661
					c0.054,0.007,0.083,0.007,0.121,0.007c0.181,0,0.271-0.082,0.271-0.232c0-0.119-0.09-0.203-0.257-0.203
					c-0.052,0-0.096,0-0.135,0.008V41.661z"/>
			</g>
			<g>
				<path fill="#00718C" d="M42.093,50.236l-0.417-0.132c-2.417-0.753-4.505-1.402-4.505-2.799v-0.085
					c0-1.065,0.748-2.311,2.859-2.311c1.732,0,3.17,0.557,4.792,1.396l0.123,0.063l3.179-3.809l-0.149-0.109
					c-1.991-1.451-4.968-2.391-7.585-2.391c-4.801,0-8.561,3.353-8.561,7.631v0.084c0,4.364,3.785,5.764,7.325,6.733l0.534,0.157
					c2.416,0.711,4.326,1.273,4.326,2.764v0.084c0,1.392-1.561,2.014-3.106,2.014c-0.064,0-0.13-0.002-0.192-0.004
					c-2.434-0.076-4.309-0.783-6.69-2.525l-0.124-0.092l-3.366,3.688l0.151,0.115c2.871,2.195,6.595,3.505,9.959,3.505
					c5.386,0,8.73-2.76,8.73-7.203v-0.086C49.376,52.982,45.876,51.379,42.093,50.236z"/>
				<path fill="#00718C" d="M63.144,46.895l3.55-4.558l-7.534,0.228l0.01-9.198l-5.502,7.597v1.615l-1.53,0.091l-3.605,4.317
					l5.136-0.031v10.48c0,4.486,2.232,6.76,6.631,6.76c1.881,0,4.62-0.653,5.984-1.427l0.18-0.093l-0.16-0.248
					c-0.179-0.283-0.547-0.867-0.93-1.8c-0.308-0.751-0.527-1.788-0.561-2.064c-0.002,0.007-0.156,0.087-0.156,0.087
					c-0.941,0.469-1.729,0.605-2.91,0.605c-1.765,0-2.586-0.835-2.586-2.628V46.95L63.144,46.895z"/>
				<path fill="#00718C" d="M77.771,40.648l-0.211-0.002c-2.377,0-4.771,0.471-5.286,0.727l-0.042,0.023l-3.253,4.909l0.562-0.258
					c1.793-0.817,4.766-1.11,6.95-1.11c0.219,0,0.428,0.002,0.625,0.01c2.856,0.078,4.852,2.321,4.852,5.453v0.174
					c-1.59-0.516-3.189-0.854-5.617-0.854c-5.43,0-8.67,2.771-8.67,7.41v0.084c0,4.803,3.959,6.989,7.638,6.989
					c2.669,0,4.945-0.989,6.608-2.868v2.409h5.116V50.483C87.043,44.576,83.404,40.715,77.771,40.648z M76.667,60.047
					c-1.927,0-3.872-0.953-3.872-3.085v-0.083c0-2.035,1.73-3.252,4.626-3.252c1.616,0,3.294,0.299,4.627,0.82v1.137
					C82.048,58.17,79.787,60.047,76.667,60.047z"/>
				<path fill="#00718C" d="M95.726,45.766v-5.672l-5.093,3.613v20.108h5.493v-8.714c0-6.42,4.438-8.699,8.241-8.699h0.474V40.62
					l-0.171-0.007C101.065,40.459,97.404,42.625,95.726,45.766z"/>
				<path fill="#00718C" d="M138.576,40.68c-6.267,0-10.992,5.031-10.992,11.704v0.085c0,6.678,4.234,11.132,11.049,11.617
					c0.403,0.029,0.806,0.045,1.195,0.045c1.999,0,3.792-0.373,5.33-1.104c1.042-0.5,2.026-1.012,2.526-1.471
					c0.435-0.395,0.563-3.959,0.344-4.527c-0.066-0.167-0.176-0.193-0.235-0.193l-0.086,0.012l-0.046,0.033
					c-0.225,0.162-0.486,0.374-0.764,0.597c-0.469,0.384-1.234,0.865-1.634,1.067c-1.737,0.884-3.164,1.261-4.772,1.261
					c-0.352,0-0.714-0.021-1.081-0.056c-3.511-0.359-5.822-2.318-6.368-5.387h16.216l0.021-0.257
					c0.041-0.466,0.077-0.906,0.077-1.345C149.355,46.748,146.021,40.68,138.576,40.68z M138.534,45.184
					c2.941,0,5.003,2.092,5.418,5.473h-10.957C133.513,47.323,135.669,45.184,138.534,45.184z"/>
				<path fill="#00718C" d="M117.958,50.123c0.113-0.619,5.63-6.191,9.051-9.537h-6.693l-6.989,6.8l-0.009-17.039l-5.701,5.712
					l0.009,27.697l5.703-0.003l0.01-10.646l8.955,10.648h7.345l-0.204-0.236C124.919,58.466,118.135,50.722,117.958,50.123z"/>
				<path fill="#00718C" d="M174.264,40.545l-5.811,0.018c0,0-7.175,12.334-7.213,12.35c-1.017-7.616-6.348-12.019-7.238-12.293
					c-0.026-0.009-1.588-0.047-3.878-0.047c-1.055,0-1.908,0.008-1.908,0.009c-0.006-0.001-1.406,0.015-1.573,0.105
					c-0.134,0.073,0.666,0.306,1.177,0.606c4.272,2.515,10.176,9.336,8.188,18.264c-1.013,4.554-2.888,6.696-4.793,8.789
					c-0.06,0.083-0.423,0.418-0.276,0.711c0.132,0.264,0.545,0.254,0.545,0.254c0.229-0.002,5.546-0.006,5.546-0.006
					s1.592-2.607,2.59-4.332C163.46,58.34,174.264,40.545,174.264,40.545z"/>
			</g>
		</g>
	</g>
	<g>
		<path fill="#00B0DA" d="M13.517,70.843c-0.258,0.411-2.27,3.412-1.871,3.771c0.723,0.653,2.49-0.558,2.158-0.782
			C13.47,73.607,13,73.91,12.955,73.57c-0.043-0.34,0.338-1.113,0.338-1.113c1.153-1.962,2.016-3.681,3.396-5.609
			c1.163-1.625,1.024-2.302-0.222-0.346C15.55,67.66,14.365,69.531,13.517,70.843z"/>
		<path fill="#00B0DA" d="M10.592,73.374c-0.019-0.005-0.036-0.009-0.056-0.011C10.55,73.379,10.569,73.381,10.592,73.374z"/>
		<path fill="#00B0DA" d="M41.723,28.902c-0.335,0.438-1.306,2.012-2.12,2.348c-0.422,0.174-1.783,0.322-2.068,0.337
			c-2.312,0.114-0.406,0.346,0.291,0.476c0.904,0.168,2.13-0.107,2.13-0.107c0.976-0.209,1.307-1.187,1.433-1.566
			c0.127-0.381,0.346-0.83,0.45-1.142C41.917,29.012,41.811,28.786,41.723,28.902z"/>
		<path fill="#00B0DA" d="M121.682,27.88c1.118-0.28-3.233-0.88,4.348-0.647c4.234,0.131,8.821-0.812,18.71-0.721
			c9.889,0.094,19.905,0.507,15.054-0.613l-21.57-0.543c-2.641,0.119-7.463-0.094-10.73-0.021
			c1.438-0.031-17.365,0.184-16.891-0.055c-11.161-0.19-30.714-0.373-36.711-0.176c-6.466,0.214-10.275-0.497-10.815-0.304
			c-0.4,0.143-0.496,0.837-0.679,0.679c-0.181-0.16-0.231-0.33-0.231-0.33c-0.39-1.777-1.53-4.477-2.07-7.023
			c-1.781-8.396-3.562-14.266-4.555-16.647c-0.573-1.376-1.453-1.614-2.334-1.417c-0.783,0.176-1.791,1.682-2.496,2.658
			c-0.691,0.959-11.557,17.777-12.502,19.224c0,0-1.32,1.979-2.372,2.546s-3.938,0.666-3.938,0.666
			c-4.334,0.151-21.119,0.023-22.941,0.006c-1.821-0.018-4.505,0.124-4.505,0.124c-3.888-0.021-5.325,1.464-3.931,3.256
			c2.019,2.595,14.818,16.472,17.502,19.13c1.031,1.021,1.432,1.594,0.975,2.795c-0.729,1.912-12.679,21.007-15.27,25.162
			c-2.934,4.703-2.859,5-3.376,6.463c-0.692,1.963,2.02,1.377,4.772,0.092c3.968-1.852,11.184-4.002,14.167-4.91
			c3.193-0.971,6.188-1.417,7.581-1.294c2.084,0.183-0.539-2.091-5.697-1.198l-1.774,0.056c-1.91-0.149-3.858,0.218-2.571,0.497
			c0.693-0.254,0.583-0.146,1.764,0.125c-2.396,0.133-4.331-0.006-6.873,0.434c-0.812,0.139-2.145,0.584-2.033-0.32
			c0.061-0.499,0.463-0.945,1.543-2.719c2.518-4.137,6.704-10.49,11.566-19.187c0.627-1.12,1.8-3.071,2.117-3.776
			c0.68-1.509,0.657-2.189-0.584-3.5c-1.184-1.248-2.405-2.523-3.197-3.354c-0.574-0.602-0.354,0.066-2.062-1.774
			c0,0,2.63,1.513,2.235,0.724s-2.024-0.86-6.503-5.453c-2.234-2.292-5.089-5.559-6.282-6.659c-0.269-0.248,1.896-0.479,2.339-0.445
			c3.188-0.278-0.213-0.39,1.733-0.716c4.817,0.113,0.661,1.07,0.661,1.07s-3.214,0.354-2.007,0.594
			c1.173,0.232,2.182,0.259,3.147,0.323c1.376,0.091,21.809-0.354,23.203-0.349c0.494,0.001,1.171-0.24,2.051-1.092
			c2.773-2.68,7.557-10.836,10.76-15.238c0.834-1.148,1.482-2.068,2.038-2.104c0.491-0.032,0.798,0.612,1.033,1.289
			c0.147,0.423,0.251,0.853,0.284,1.067c0.084,0.557,1.861,7.836,2.412,10.477c0.385,1.852,0.704,3.109,1.178,4.031
			c0.326,0.636,0.441,1.407,2.408,1.457c1.199,0.031,5.624,0.034,6.695,0.062c2.143,0.052,9.401,0.638,8.847-0.282
			c-0.765-1.268,5.591-0.938,10.062-0.98c5.09,0.138,15.718,0.082,17.447,0.107c6.461,0.094,0.218-1.182,7.229-1.082
			C110.041,28.061,120.648,28.139,121.682,27.88z"/>
		<path fill="#00B0DA" d="M143.961,27.488c0.137,0.311-2.787-0.105-2.052,0.342c1.226,0.746,7.068,0.469,6.739,0.033
			S143.826,27.178,143.961,27.488z"/>
		<path fill="#00B0DA" d="M22.546,77.688c-0.555-0.015-1.547,0.648-1.5,0.853c0.045,0.206,0.998-0.195,1.25-0.139
			c0.455,0.102,1.857,0.109,1.447-0.126C23.446,78.107,23.098,77.702,22.546,77.688z"/>
		<path fill="#00B0DA" d="M165.635,25.957c0.497,0.188,0.283,0.525,0.13,0.852c0.794,0.127,1.915-0.154,2.763-0.148
			c0.59,0.004,1.796,0.183,2.018-0.342c-1.45-0.174-3.169-0.045-4.452-0.533L165.635,25.957z"/>
	</g>
</g>
</svg>
