<?xml version="1.0" encoding="utf-8"?>
<!-- Generator: Adobe Illustrator 17.0.1, SVG Export Plug-In . SVG Version: 6.00 Build 0)  -->
<!DOCTYPE svg PUBLIC "-//W3C//DTD SVG 1.1//EN" "http://www.w3.org/Graphics/SVG/1.1/DTD/svg11.dtd">
<svg version="1.1" id="Layer_1" xmlns="http://www.w3.org/2000/svg" xmlns:xlink="http://www.w3.org/1999/xlink" x="0px" y="0px"
	 width="400px" height="400px" viewBox="0 0 400 400" enable-background="new 0 0 400 400" xml:space="preserve">
<g>
	<path fill="#32A3C6" d="M208.485,61.262h-19.35c-3.338,0-5.088,3.639-5.088,5.919v77.081c0,2.279,1.848,4.128,4.128,4.128
		s4.128-1.848,4.128-4.128v-74.33h13.847v74.33c0,2.279,1.848,4.128,4.128,4.128s4.128-1.848,4.128-4.128V67.181
		C214.404,64.901,211.766,61.262,208.485,61.262z"/>
	<path fill="#32A3C6" d="M206.482,39.031c2.099-3.505,4.219-7.265,5.707-10.447c0.471-0.921,0.868-1.895,1.19-2.913
		c0.459-1.335,0.738-2.569,0.782-3.65c0.092-0.783,0.156-1.575,0.157-2.387c0.005-9.692-5.109-17.541-15.081-17.667V1.961
		c-0.033,0-0.065,0.002-0.098,0.003c-0.033,0-0.065-0.003-0.098-0.003v0.005c-9.972,0.126-15.086,7.975-15.081,17.667
		c0,0.812,0.065,1.604,0.157,2.387c0.044,1.081,0.322,2.315,0.782,3.65c0.322,1.019,0.719,1.992,1.19,2.913
		c1.488,3.182,3.608,6.942,5.708,10.447c-3.057,0.533-6.008,1.403-8.831,2.554l0,0c-3.748,1.529-7.259,3.571-10.462,6.048
		c-0.028,0.022-0.057,0.044-0.085,0.066c-0.436,0.339-0.866,0.685-1.29,1.04c-0.026,0.022-0.051,0.044-0.077,0.065
		c-2.15,1.806-4.144,3.813-5.961,5.996c-0.075,0.09-0.151,0.179-0.225,0.27c-0.293,0.358-0.58,0.721-0.864,1.088
		c-0.105,0.135-0.209,0.271-0.312,0.407c-0.266,0.352-0.528,0.707-0.785,1.066c-0.111,0.155-0.22,0.312-0.329,0.469
		c-0.249,0.356-0.495,0.714-0.735,1.078c-0.102,0.155-0.201,0.314-0.302,0.471c-0.242,0.376-0.484,0.753-0.716,1.137
		c-0.003,0.006-0.007,0.012-0.01,0.017c-0.505,0.835-0.981,1.691-1.438,2.56c-0.113,0.214-0.229,0.426-0.339,0.643
		c-0.163,0.32-0.317,0.646-0.474,0.97c-0.13,0.269-0.26,0.538-0.385,0.81c-0.143,0.311-0.28,0.624-0.417,0.939
		c-0.129,0.296-0.256,0.593-0.379,0.892c-0.126,0.304-0.249,0.61-0.368,0.917c-0.125,0.321-0.246,0.644-0.365,0.969
		c-0.108,0.295-0.217,0.589-0.32,0.887c-0.125,0.363-0.243,0.729-0.361,1.095c-0.085,0.266-0.175,0.531-0.256,0.799
		c-0.176,0.582-0.342,1.169-0.498,1.76c-0.047,0.177-0.089,0.355-0.134,0.533c-0.132,0.522-0.259,1.047-0.375,1.576
		c-0.054,0.247-0.101,0.497-0.152,0.745c-0.086,0.423-0.171,0.847-0.247,1.274c-0.048,0.272-0.092,0.545-0.136,0.818
		c-0.067,0.413-0.13,0.827-0.187,1.243c-0.038,0.277-0.074,0.554-0.107,0.832c-0.051,0.426-0.096,0.854-0.137,1.284
		c-0.026,0.268-0.052,0.535-0.074,0.804c-0.038,0.47-0.065,0.942-0.091,1.416c-0.012,0.23-0.029,0.459-0.038,0.69
		c-0.028,0.704-0.045,1.412-0.045,2.124c0.011,1.979,0.347,19.537,8.478,26.439c0.327,0.277,0.665,0.529,1.009,0.767
		c0.023,0.016,0.046,0.03,0.069,0.045c0.335,0.228,0.679,0.436,1.029,0.627l0,0c1.732,0.944,3.637,1.436,5.654,1.436
		c0.656,0,1.31-0.137,1.987-0.24l-2.16-7.665c-1.016,0.065-1.447-0.098-2.447-0.945c-1.229-1.042-2.231-2.77-3.034-4.839
		c-0.232-0.598-0.447-1.224-0.646-1.871c0-0.001-0.001-0.002-0.001-0.002c-0.496-1.612-0.892-3.349-1.197-5.086
		c-0.003-0.018-0.006-0.036-0.009-0.054c-0.12-0.684-0.226-1.369-0.318-2.045c-0.002-0.012-0.003-0.024-0.005-0.036
		c-0.042-0.311-0.081-0.619-0.118-0.925c-0.005-0.044-0.011-0.088-0.016-0.131c-0.074-0.632-0.136-1.253-0.187-1.856
		c-0.005-0.063-0.01-0.124-0.015-0.187c-0.02-0.25-0.038-0.496-0.055-0.739c-0.003-0.049-0.007-0.099-0.01-0.148
		c-0.018-0.28-0.033-0.555-0.046-0.824c-0.003-0.057-0.005-0.112-0.007-0.169c-0.01-0.214-0.017-0.425-0.024-0.631
		c-0.002-0.069-0.004-0.138-0.006-0.206c-0.007-0.252-0.011-0.499-0.013-0.736c0-0.544,0.011-1.085,0.031-1.625
		c0.006-0.178,0.018-0.355,0.027-0.533c0.017-0.359,0.035-0.718,0.061-1.075c0.015-0.212,0.035-0.422,0.053-0.633
		c0.028-0.321,0.056-0.642,0.091-0.96c0.024-0.223,0.052-0.445,0.079-0.666c0.037-0.304,0.077-0.607,0.12-0.908
		c0.033-0.228,0.068-0.454,0.104-0.681c0.047-0.293,0.097-0.585,0.15-0.876c0.041-0.228,0.083-0.456,0.128-0.683
		c0.057-0.287,0.118-0.572,0.18-0.857c0.049-0.226,0.097-0.451,0.15-0.676c0.067-0.287,0.14-0.571,0.213-0.855
		c0.056-0.217,0.109-0.436,0.168-0.651c0.081-0.298,0.17-0.594,0.257-0.889c0.059-0.198,0.113-0.398,0.174-0.595
		c0.145-0.466,0.298-0.928,0.458-1.386c0.086-0.248,0.18-0.492,0.271-0.738c0.083-0.226,0.165-0.453,0.252-0.677
		c0.101-0.259,0.207-0.515,0.313-0.772c0.084-0.205,0.167-0.41,0.254-0.612c0.113-0.264,0.231-0.525,0.349-0.785
		c0.086-0.189,0.172-0.378,0.26-0.566c0.126-0.267,0.255-0.533,0.387-0.797c0.086-0.173,0.173-0.345,0.261-0.517
		c0.14-0.273,0.282-0.544,0.428-0.812c0.083-0.153,0.168-0.304,0.252-0.456c0.158-0.282,0.316-0.564,0.48-0.842
		c0.071-0.12,0.144-0.239,0.216-0.358c0.183-0.304,0.367-0.608,0.558-0.906c0.03-0.047,0.061-0.093,0.092-0.14
		c0.97-1.507,2.029-2.941,3.171-4.291c0.012-0.015,0.024-0.03,0.037-0.044c0.269-0.318,0.545-0.63,0.823-0.938
		c0.037-0.041,0.073-0.082,0.11-0.122c0.273-0.3,0.552-0.596,0.833-0.887c0.04-0.041,0.08-0.083,0.12-0.124
		c0.287-0.294,0.578-0.583,0.873-0.867c0.03-0.029,0.061-0.058,0.091-0.087c0.31-0.296,0.623-0.587,0.941-0.872
		c0.003-0.003,0.006-0.006,0.01-0.009c2.358-2.109,4.955-3.914,7.738-5.359c1.525-0.791,3.102-1.481,4.73-2.047
		c3.375-1.172,7.368-2.617,10.738-3.575c0.234-0.014,0.467-0.028,0.706-0.028c0.247,0,0.488,0.014,0.729,0.029
		c2.594,0.748,7.298,2.407,10.526,3.508c15.329,5.227,26.482,20.838,26.482,39.218c0,0.041-0.033,4.111-0.865,8.859
		c-1.002,5.712-2.797,9.957-4.839,11.646c-1.011,0.836-2.871,0.378-4.246,0.17l-1.236,7.557c3.44,1.863,7.873,0.584,10.62-1.748
		c8.131-6.902,8.466-24.459,8.478-26.461C244.787,63.038,228.173,42.811,206.482,39.031z M199.139,34.819
		c0,0-7.312-6.691-7.848-16.004c-0.267-5.478,3.173-9.033,7.794-9.131V9.681c0,0,0.004,0,0.006,0v0c0.016,0,0.032,0.001,0.048,0.001
		c0.016,0,0.031-0.001,0.048-0.001v0c0.002,0,0.004,0,0.004,0l0.002,0.003c4.621,0.098,8.061,3.652,7.794,9.131
		C206.451,28.127,199.139,34.819,199.139,34.819z"/>
	<path fill="#83C13A" d="M288.409,92.738l-15.655-11.374c-2.701-1.962-6.256-0.046-7.595,1.798l-45.307,62.36
		c-1.34,1.844-0.931,4.426,0.913,5.766c1.844,1.34,4.426,0.931,5.766-0.913l43.69-60.134l11.202,8.139l-43.69,60.134
		c-1.34,1.844-0.931,4.426,0.913,5.766c1.844,1.34,4.426,0.931,5.766-0.913l45.307-62.36
		C291.058,99.161,291.064,94.667,288.409,92.738z"/>
	<path fill="#83C13A" d="M299.856,73.576c3.759-1.602,7.684-3.398,10.758-5.097c0.922-0.469,1.816-1.023,2.675-1.658
		c1.156-0.81,2.107-1.645,2.778-2.494c0.535-0.579,1.052-1.183,1.53-1.839c5.701-7.839,6.177-17.194-1.816-23.157l0.003-0.004
		c-0.027-0.019-0.054-0.036-0.081-0.055c-0.027-0.02-0.051-0.04-0.078-0.06l-0.003,0.004c-8.142-5.759-16.892-2.415-22.585,5.429
		c-0.477,0.657-0.891,1.336-1.276,2.023c-0.6,0.901-1.1,2.063-1.513,3.413c-0.339,1.013-0.589,2.034-0.75,3.056
		c-0.666,3.449-1.161,7.737-1.523,11.807c-2.786-1.366-5.685-2.396-8.646-3.124l0,0c-3.93-0.966-7.971-1.378-12.019-1.256
		c-0.036,0.001-0.072,0.002-0.108,0.003c-0.552,0.018-1.103,0.045-1.655,0.083c-0.034,0.002-0.067,0.005-0.101,0.007
		c-2.801,0.197-5.594,0.649-8.347,1.347c-0.114,0.029-0.227,0.056-0.341,0.086c-0.448,0.117-0.893,0.242-1.338,0.373
		c-0.164,0.048-0.328,0.096-0.492,0.146c-0.422,0.128-0.842,0.261-1.262,0.401c-0.181,0.06-0.361,0.123-0.542,0.186
		c-0.411,0.142-0.82,0.287-1.228,0.44c-0.174,0.066-0.347,0.136-0.521,0.204c-0.417,0.162-0.834,0.324-1.247,0.499
		c-0.006,0.003-0.012,0.005-0.018,0.008c-0.899,0.379-1.787,0.791-2.668,1.225c-0.217,0.107-0.436,0.21-0.652,0.321
		c-0.32,0.163-0.636,0.336-0.954,0.507c-0.263,0.141-0.526,0.282-0.787,0.429c-0.298,0.167-0.594,0.34-0.889,0.514
		c-0.278,0.164-0.555,0.329-0.831,0.499c-0.28,0.172-0.56,0.347-0.837,0.525c-0.29,0.186-0.577,0.377-0.864,0.569
		c-0.261,0.175-0.522,0.349-0.78,0.529c-0.315,0.22-0.625,0.447-0.936,0.674c-0.226,0.165-0.453,0.327-0.677,0.496
		c-0.485,0.367-0.964,0.744-1.437,1.131c-0.142,0.116-0.281,0.235-0.421,0.352c-0.414,0.345-0.825,0.694-1.229,1.054
		c-0.189,0.168-0.374,0.342-0.561,0.513c-0.319,0.292-0.636,0.585-0.949,0.886c-0.199,0.191-0.394,0.387-0.591,0.582
		c-0.297,0.295-0.591,0.593-0.881,0.896c-0.193,0.202-0.385,0.405-0.576,0.61c-0.292,0.315-0.58,0.635-0.866,0.958
		c-0.178,0.202-0.357,0.402-0.532,0.607c-0.307,0.358-0.607,0.724-0.905,1.092c-0.145,0.179-0.293,0.355-0.436,0.536
		c-0.437,0.553-0.867,1.116-1.285,1.692c-1.154,1.608-11.203,16.01-8.682,26.372c0.101,0.417,0.227,0.819,0.366,1.214
		c0.009,0.026,0.02,0.051,0.03,0.077c0.137,0.382,0.293,0.752,0.464,1.112l0,0c0.847,1.782,2.098,3.3,3.73,4.485
		c0.531,0.386,1.13,0.742,1.732,1.021l2.774-7.519c-0.86-0.545-1.113-0.93-1.424-2.203c-0.382-1.566-0.177-3.553,0.39-5.698
		c0.164-0.62,0.358-1.253,0.577-1.894l0.001-0.003c0.546-1.595,1.247-3.233,2.02-4.817c0.008-0.016,0.016-0.033,0.024-0.049
		c0.305-0.624,0.622-1.24,0.945-1.841c0.006-0.011,0.012-0.022,0.018-0.032c0.148-0.276,0.298-0.548,0.449-0.818
		c0.021-0.038,0.043-0.077,0.064-0.115c0.312-0.555,0.626-1.093,0.94-1.611c0.033-0.054,0.065-0.107,0.097-0.16
		c0.13-0.214,0.261-0.424,0.39-0.63c0.026-0.042,0.052-0.084,0.079-0.126c0.15-0.237,0.299-0.469,0.447-0.694
		c0.031-0.048,0.062-0.094,0.093-0.141c0.118-0.179,0.236-0.354,0.352-0.524c0.039-0.057,0.078-0.114,0.116-0.171
		c0.143-0.207,0.284-0.41,0.422-0.603c0.32-0.44,0.647-0.872,0.98-1.296c0.11-0.141,0.224-0.276,0.335-0.415
		c0.225-0.281,0.451-0.56,0.681-0.834c0.137-0.162,0.277-0.321,0.415-0.481c0.211-0.243,0.423-0.486,0.638-0.724
		c0.15-0.166,0.303-0.329,0.456-0.493c0.209-0.224,0.419-0.446,0.631-0.664c0.16-0.165,0.322-0.328,0.484-0.49
		c0.21-0.21,0.423-0.416,0.636-0.621c0.167-0.16,0.335-0.32,0.505-0.477c0.214-0.199,0.432-0.394,0.649-0.588
		c0.172-0.154,0.344-0.308,0.518-0.458c0.223-0.192,0.449-0.379,0.675-0.567c0.173-0.143,0.344-0.288,0.518-0.428
		c0.241-0.194,0.486-0.38,0.731-0.568c0.164-0.126,0.326-0.256,0.491-0.379c0.391-0.292,0.786-0.575,1.185-0.852
		c0.216-0.15,0.435-0.292,0.653-0.438c0.2-0.134,0.4-0.269,0.601-0.399c0.234-0.151,0.471-0.295,0.707-0.441
		c0.188-0.116,0.376-0.233,0.566-0.346c0.247-0.147,0.495-0.289,0.744-0.43c0.181-0.103,0.361-0.205,0.543-0.305
		c0.259-0.142,0.52-0.281,0.781-0.417c0.171-0.089,0.343-0.178,0.515-0.265c0.274-0.138,0.548-0.274,0.824-0.406
		c0.157-0.075,0.315-0.148,0.472-0.221c0.293-0.136,0.587-0.27,0.883-0.399c0.128-0.056,0.257-0.108,0.385-0.163
		c0.327-0.138,0.654-0.276,0.984-0.405c0.052-0.02,0.104-0.039,0.156-0.059c1.671-0.649,3.37-1.187,5.088-1.608
		c0.019-0.005,0.037-0.01,0.056-0.014c0.405-0.099,0.811-0.189,1.217-0.275c0.054-0.011,0.107-0.023,0.161-0.034
		c0.398-0.082,0.796-0.158,1.195-0.227c0.057-0.01,0.113-0.02,0.17-0.03c0.405-0.069,0.811-0.132,1.216-0.188
		c0.042-0.006,0.083-0.011,0.125-0.017c0.424-0.057,0.849-0.109,1.274-0.152c0.004,0,0.009-0.001,0.013-0.001
		c3.148-0.32,6.309-0.254,9.41,0.213c1.699,0.256,3.38,0.625,5.03,1.124c3.419,1.035,7.499,2.213,10.788,3.42
		c0.197,0.126,0.395,0.252,0.588,0.392c0.199,0.145,0.386,0.298,0.572,0.452c1.659,2.13,4.489,6.237,6.454,9.025
		c9.329,13.239,9.176,32.424-1.627,47.294c-0.024,0.033-2.443,3.307-5.907,6.658c-4.168,4.032-8.115,6.411-10.76,6.578
		c-1.309,0.082-2.545-1.382-3.535-2.359l-5.439,5.407c1.688,3.529,6.023,5.079,9.616,4.808
		c10.635-0.804,21.226-14.812,22.412-16.425C316.734,115.513,315.182,89.383,299.856,73.576z M296.391,65.852
		c0,0-1.982-9.711,3.058-17.56c3.004-4.589,7.876-5.443,11.672-2.806l0.002-0.002l0.005,0.004l0,0
		c0.013,0.01,0.025,0.019,0.038,0.029c0.013,0.009,0.026,0.018,0.039,0.027l0,0l0.003,0.002l0,0.003
		c3.681,2.796,4.375,7.693,0.939,11.968C306.24,64.736,296.391,65.852,296.391,65.852z"/>
	<linearGradient id="SVGID_1_" gradientUnits="userSpaceOnUse" x1="219.9971" y1="98.7918" x2="241.3213" y2="106.5532">
		<stop  offset="0.4" style="stop-color:#83C13A"/>
		<stop  offset="0.6" style="stop-color:#32A3C6"/>
	</linearGradient>
	<path fill="url(#SVGID_1_)" d="M236.708,90.639c-0.122,1.536-0.333,3.481-0.697,5.555c-1.002,5.712-2.797,9.957-4.839,11.646
		c-0.553,0.457-1.361,0.523-2.204,0.458c-0.85-0.54-1.103-0.928-1.412-2.195c-0.382-1.566-0.177-3.553,0.39-5.698
		c0.164-0.62,0.358-1.253,0.577-1.894l0.001-0.003c0.546-1.595,1.247-3.233,2.02-4.817c0.008-0.016,0.016-0.033,0.024-0.049
		c0.305-0.624,0.622-1.24,0.945-1.841c0.006-0.011,0.012-0.022,0.018-0.032c0.148-0.276,0.298-0.548,0.449-0.818
		c0.021-0.038,0.043-0.077,0.064-0.115c0.312-0.555,0.626-1.093,0.94-1.611c0.02-0.033,0.041-0.067,0.061-0.1l-7.386-3.052
		c-3.188,5.448-7.531,14.624-5.774,21.843c0.101,0.417,0.227,0.819,0.366,1.214c0.009,0.026,0.02,0.051,0.03,0.077
		c0.137,0.382,0.293,0.752,0.464,1.112l0,0c0.847,1.782,2.098,3.3,3.73,4.485c0.378,0.275,0.794,0.523,1.218,0.75l-0.002,0.013
		c0.093,0.05,0.188,0.089,0.282,0.135c0.079,0.039,0.155,0.087,0.234,0.123l0.004-0.01c3.357,1.48,7.489,0.22,10.101-1.996
		c5.356-4.546,7.329-13.714,8.055-20.016L236.708,90.639z"/>
	<path fill="#32A3C6" d="M334.599,165.214l-5.98-18.403c-1.032-3.175-5.034-3.715-7.202-3.01l-73.309,23.819
		c-2.168,0.704-3.355,3.033-2.65,5.201c0.704,2.168,3.033,3.355,5.201,2.65l70.692-22.969l4.279,13.169l-70.692,22.969
		c-2.168,0.704-3.355,3.033-2.65,5.201c0.704,2.168,3.033,3.355,5.201,2.65l73.309-23.819
		C332.966,171.968,335.613,168.335,334.599,165.214z"/>
	<path fill="#32A3C6" d="M355.123,156.44c3.982,0.914,8.213,1.768,11.699,2.2c1.022,0.163,2.07,0.24,3.138,0.231
		c1.412,0.024,2.671-0.092,3.713-0.385c0.773-0.154,1.547-0.338,2.319-0.589c9.22-2.991,15.103-10.28,12.142-19.802l0.005-0.002
		c-0.01-0.031-0.022-0.061-0.033-0.092c-0.01-0.031-0.018-0.062-0.028-0.094l-0.005,0.002c-3.202-9.445-12.246-11.883-21.463-8.883
		c-0.772,0.251-1.506,0.557-2.222,0.887c-1.015,0.376-2.102,1.022-3.23,1.871c-0.869,0.621-1.672,1.299-2.403,2.032
		c-2.566,2.399-5.487,5.577-8.172,8.657c-1.451-2.743-3.191-5.28-5.158-7.609l0,0c-2.612-3.092-5.639-5.8-8.985-8.081
		c-0.03-0.02-0.059-0.041-0.089-0.061c-0.457-0.31-0.919-0.612-1.387-0.906c-0.029-0.018-0.057-0.035-0.086-0.053
		c-2.382-1.487-4.907-2.763-7.545-3.816c-0.109-0.043-0.217-0.088-0.326-0.131c-0.431-0.168-0.865-0.329-1.302-0.485
		c-0.161-0.058-0.322-0.115-0.483-0.171c-0.417-0.144-0.835-0.284-1.257-0.417c-0.182-0.058-0.365-0.112-0.548-0.168
		c-0.416-0.126-0.832-0.25-1.252-0.366c-0.179-0.049-0.361-0.094-0.541-0.141c-0.433-0.114-0.865-0.228-1.302-0.33
		c-0.006-0.002-0.013-0.003-0.019-0.004c-0.95-0.222-1.911-0.41-2.879-0.577c-0.239-0.041-0.476-0.086-0.716-0.124
		c-0.355-0.056-0.712-0.102-1.069-0.151c-0.296-0.04-0.592-0.081-0.889-0.116c-0.34-0.04-0.68-0.074-1.022-0.107
		c-0.321-0.031-0.643-0.06-0.965-0.085c-0.328-0.025-0.657-0.048-0.986-0.067c-0.344-0.02-0.689-0.035-1.034-0.047
		c-0.314-0.012-0.627-0.024-0.942-0.03c-0.384-0.007-0.768-0.006-1.153-0.004c-0.28,0.001-0.559-0.002-0.839,0.004
		c-0.608,0.012-1.217,0.036-1.828,0.07c-0.182,0.01-0.365,0.025-0.548,0.037c-0.537,0.036-1.075,0.077-1.614,0.13
		c-0.252,0.025-0.503,0.057-0.755,0.086c-0.429,0.049-0.858,0.099-1.288,0.159c-0.273,0.038-0.547,0.081-0.82,0.124
		c-0.413,0.064-0.826,0.132-1.24,0.207c-0.275,0.049-0.549,0.101-0.824,0.155c-0.421,0.083-0.842,0.173-1.264,0.266
		c-0.263,0.058-0.525,0.116-0.787,0.178c-0.458,0.109-0.916,0.229-1.374,0.351c-0.223,0.06-0.446,0.115-0.668,0.177
		c-0.679,0.191-1.357,0.393-2.034,0.613c-1.879,0.622-18.474,6.367-22.525,16.233c-0.163,0.397-0.298,0.796-0.418,1.197
		c-0.008,0.027-0.014,0.053-0.021,0.08c-0.114,0.389-0.205,0.78-0.278,1.172l0,0c-0.363,1.939-0.242,3.903,0.382,5.821
		c0.203,0.624,0.479,1.281,0.823,1.926l6.642-4.534c-0.376-0.946-0.354-1.407,0.143-2.619c0.611-1.491,1.945-2.978,3.664-4.381
		c0.497-0.405,1.026-0.804,1.58-1.193c0.001-0.001,0.002-0.001,0.002-0.001c1.38-0.97,2.91-1.883,4.467-2.71
		c0.016-0.008,0.032-0.017,0.048-0.025c0.614-0.325,1.232-0.638,1.846-0.934c0.011-0.005,0.022-0.011,0.033-0.016
		c0.282-0.136,0.564-0.268,0.844-0.398c0.04-0.018,0.08-0.037,0.12-0.055c0.578-0.266,1.149-0.516,1.707-0.751
		c0.058-0.024,0.115-0.048,0.173-0.072c0.231-0.096,0.46-0.19,0.686-0.281c0.046-0.018,0.092-0.037,0.137-0.055
		c0.261-0.104,0.518-0.203,0.77-0.299c0.053-0.02,0.105-0.039,0.158-0.059c0.201-0.075,0.398-0.148,0.593-0.218
		c0.065-0.023,0.13-0.047,0.194-0.07c0.237-0.084,0.471-0.165,0.696-0.24c0.517-0.168,1.036-0.325,1.555-0.473
		c0.172-0.049,0.343-0.092,0.515-0.139c0.347-0.095,0.694-0.188,1.041-0.274c0.206-0.051,0.412-0.097,0.618-0.145
		c0.314-0.073,0.628-0.145,0.941-0.21c0.219-0.046,0.439-0.088,0.658-0.131c0.3-0.058,0.601-0.114,0.901-0.166
		c0.227-0.039,0.453-0.076,0.68-0.112c0.293-0.046,0.587-0.088,0.88-0.128c0.23-0.031,0.459-0.062,0.689-0.09
		c0.29-0.035,0.581-0.065,0.871-0.094c0.23-0.023,0.459-0.047,0.689-0.066c0.294-0.025,0.586-0.043,0.879-0.062
		c0.224-0.014,0.448-0.031,0.671-0.042c0.309-0.015,0.617-0.022,0.925-0.03c0.207-0.006,0.414-0.015,0.62-0.018
		c0.488-0.006,0.974-0.003,1.46,0.007c0.263,0.006,0.524,0.019,0.785,0.03c0.241,0.009,0.482,0.017,0.721,0.03
		c0.278,0.016,0.554,0.038,0.831,0.059c0.221,0.017,0.441,0.032,0.661,0.053c0.286,0.026,0.57,0.058,0.855,0.089
		c0.206,0.023,0.413,0.046,0.618,0.072c0.293,0.037,0.586,0.078,0.877,0.121c0.191,0.028,0.382,0.058,0.572,0.089
		c0.303,0.049,0.604,0.101,0.905,0.156c0.171,0.032,0.341,0.065,0.512,0.099c0.317,0.063,0.634,0.127,0.949,0.196
		c0.136,0.03,0.272,0.063,0.407,0.095c0.346,0.08,0.692,0.162,1.034,0.25c0.054,0.014,0.107,0.03,0.161,0.044
		c1.733,0.457,3.424,1.021,5.061,1.69c0.018,0.007,0.036,0.014,0.053,0.021c0.385,0.158,0.767,0.323,1.146,0.493
		c0.05,0.022,0.1,0.044,0.15,0.067c0.37,0.167,0.737,0.341,1.101,0.519c0.052,0.025,0.104,0.051,0.155,0.076
		c0.368,0.182,0.733,0.37,1.095,0.563c0.037,0.02,0.074,0.04,0.111,0.06c0.377,0.203,0.751,0.411,1.121,0.626
		c0.004,0.002,0.007,0.004,0.011,0.007c2.735,1.591,5.254,3.503,7.488,5.703c1.224,1.205,2.367,2.492,3.408,3.866
		c2.158,2.847,4.766,6.199,6.718,9.108c0.086,0.218,0.171,0.436,0.245,0.663c0.076,0.234,0.137,0.468,0.198,0.702
		c0.091,2.698-0.034,7.685-0.084,11.095c-0.234,16.194-11.634,31.625-29.115,37.305c-0.039,0.013-3.92,1.239-8.693,1.915
		c-5.742,0.812-10.334,0.417-12.572-1.003c-1.107-0.703-1.247-2.614-1.473-3.986l-7.569,1.16c-0.709,3.847,1.878,7.668,4.944,9.56
		c9.076,5.6,25.879,0.493,27.786-0.114C344.127,200.289,358.23,178.237,355.123,156.44z M356.86,148.154
		c0,0,4.104-9.022,12.796-12.409c5.128-1.947,9.571,0.226,11.092,4.591l0.003-0.001l0.001,0.004l0.001,0.002
		c0.005,0.015,0.009,0.03,0.014,0.046c0.005,0.015,0.011,0.03,0.016,0.045l0,0c0.001,0.002,0.001,0.004,0.001,0.004l-0.002,0.003
		c1.335,4.425-0.983,8.795-6.275,10.234C365.483,153.041,356.86,148.154,356.86,148.154z"/>
	<path fill="#83C13A" d="M329.361,250.953l5.98-18.403c1.032-3.175-1.889-5.964-4.057-6.668l-73.309-23.819
		c-2.168-0.704-4.497,0.482-5.201,2.65c-0.704,2.168,0.482,4.497,2.65,5.201l70.692,22.969l-4.279,13.169l-70.692-22.969
		c-2.168-0.704-4.497,0.482-5.201,2.65c-0.704,2.168,0.482,4.497,2.65,5.201l73.309,23.819
		C324.071,255.458,328.347,254.074,329.361,250.953z"/>
	<path fill="#83C13A" d="M351.123,255.918c2.685,3.08,5.606,6.258,8.172,8.656c0.731,0.732,1.534,1.411,2.403,2.032
		c1.128,0.849,2.215,1.496,3.23,1.871c0.716,0.329,1.45,0.636,2.222,0.887c9.217,2.999,18.261,0.561,21.463-8.883l0.005,0.002
		c0.01-0.032,0.018-0.062,0.028-0.094c0.01-0.031,0.022-0.061,0.033-0.092l-0.005-0.002c2.961-9.523-2.923-16.812-12.142-19.802
		c-0.772-0.25-1.546-0.434-2.319-0.589c-1.042-0.292-2.301-0.409-3.713-0.385c-1.068-0.009-2.117,0.068-3.138,0.231
		c-3.486,0.432-7.717,1.286-11.699,2.2c0.438-3.072,0.522-6.147,0.299-9.188v0c-0.296-4.037-1.153-8.007-2.52-11.819
		c-0.012-0.034-0.024-0.068-0.036-0.101c-0.188-0.519-0.384-1.035-0.59-1.548c-0.013-0.031-0.026-0.062-0.038-0.093
		c-1.053-2.603-2.346-5.12-3.861-7.522c-0.062-0.099-0.124-0.199-0.187-0.298c-0.25-0.389-0.507-0.775-0.768-1.158
		c-0.096-0.141-0.193-0.282-0.291-0.422c-0.252-0.362-0.509-0.72-0.771-1.076c-0.113-0.154-0.229-0.305-0.344-0.458
		c-0.262-0.347-0.526-0.692-0.798-1.032c-0.116-0.145-0.237-0.288-0.354-0.432c-0.283-0.346-0.566-0.693-0.86-1.032
		c-0.004-0.005-0.009-0.01-0.013-0.015c-0.638-0.738-1.305-1.455-1.99-2.159c-0.169-0.174-0.335-0.35-0.506-0.521
		c-0.254-0.254-0.516-0.501-0.776-0.75c-0.216-0.206-0.431-0.413-0.651-0.616c-0.251-0.232-0.507-0.459-0.764-0.687
		c-0.242-0.214-0.485-0.426-0.731-0.636c-0.251-0.213-0.503-0.425-0.758-0.634c-0.267-0.218-0.537-0.433-0.809-0.646
		c-0.247-0.194-0.493-0.388-0.745-0.578c-0.306-0.231-0.618-0.456-0.93-0.681c-0.227-0.164-0.451-0.33-0.681-0.49
		c-0.499-0.347-1.006-0.686-1.52-1.018c-0.154-0.099-0.31-0.195-0.465-0.292c-0.456-0.287-0.915-0.57-1.383-0.844
		c-0.218-0.128-0.441-0.25-0.661-0.374c-0.376-0.213-0.753-0.424-1.135-0.628c-0.243-0.13-0.49-0.256-0.736-0.382
		c-0.372-0.191-0.746-0.379-1.124-0.561c-0.251-0.121-0.504-0.241-0.758-0.359c-0.389-0.181-0.783-0.356-1.179-0.527
		c-0.247-0.107-0.493-0.215-0.742-0.319c-0.435-0.181-0.876-0.353-1.318-0.524c-0.215-0.083-0.428-0.169-0.645-0.249
		c-0.661-0.244-1.329-0.479-2.006-0.699c-1.886-0.601-18.688-5.708-27.765-0.107c-0.365,0.225-0.709,0.469-1.041,0.723
		c-0.022,0.017-0.042,0.035-0.064,0.052c-0.321,0.248-0.624,0.511-0.914,0.785l0,0c-1.433,1.356-2.49,3.015-3.113,4.934
		c-0.203,0.624-0.356,1.304-0.436,1.963l8.008,0.315c0.252-0.986,0.54-1.346,1.655-2.035c1.371-0.847,3.324-1.266,5.539-1.39
		c0.64-0.036,1.303-0.047,1.979-0.037c0.001,0,0.002,0,0.004,0c1.685,0.026,3.46,0.187,5.206,0.433
		c0.018,0.003,0.036,0.005,0.054,0.008c0.688,0.098,1.371,0.208,2.043,0.329c0.012,0.002,0.024,0.004,0.036,0.007
		c0.308,0.056,0.614,0.114,0.916,0.174c0.043,0.009,0.087,0.017,0.13,0.026c0.624,0.125,1.233,0.258,1.823,0.396
		c0.061,0.014,0.122,0.029,0.182,0.043c0.244,0.058,0.484,0.117,0.72,0.176c0.048,0.012,0.096,0.024,0.144,0.036
		c0.272,0.069,0.538,0.14,0.798,0.211c0.055,0.015,0.108,0.03,0.163,0.045c0.207,0.057,0.409,0.115,0.607,0.172
		c0.066,0.019,0.133,0.039,0.198,0.058c0.241,0.072,0.478,0.143,0.704,0.215c0.518,0.168,1.029,0.346,1.536,0.531
		c0.168,0.061,0.332,0.127,0.498,0.19c0.336,0.127,0.672,0.255,1.004,0.39c0.197,0.08,0.39,0.164,0.585,0.246
		c0.297,0.125,0.593,0.252,0.885,0.383c0.205,0.092,0.407,0.186,0.609,0.281c0.277,0.129,0.553,0.261,0.826,0.395
		c0.206,0.102,0.411,0.205,0.615,0.309c0.264,0.135,0.527,0.273,0.787,0.413c0.204,0.11,0.408,0.22,0.61,0.332
		c0.255,0.143,0.508,0.289,0.759,0.436c0.199,0.116,0.399,0.232,0.596,0.351c0.252,0.153,0.5,0.31,0.748,0.467
		c0.189,0.12,0.381,0.238,0.568,0.361c0.259,0.17,0.512,0.345,0.766,0.519c0.17,0.117,0.344,0.231,0.512,0.35
		c0.398,0.282,0.79,0.57,1.177,0.863c0.209,0.159,0.412,0.323,0.618,0.485c0.189,0.149,0.38,0.297,0.566,0.449
		c0.216,0.176,0.426,0.356,0.638,0.536c0.169,0.143,0.338,0.286,0.504,0.431c0.216,0.189,0.428,0.382,0.639,0.575
		c0.153,0.14,0.307,0.28,0.458,0.422c0.215,0.203,0.428,0.407,0.638,0.614c0.138,0.135,0.275,0.271,0.411,0.408
		c0.216,0.218,0.43,0.437,0.64,0.658c0.12,0.126,0.238,0.254,0.356,0.381c0.22,0.237,0.438,0.475,0.652,0.716
		c0.093,0.105,0.183,0.211,0.274,0.316c0.233,0.268,0.465,0.537,0.69,0.81c0.035,0.043,0.069,0.087,0.105,0.13
		c1.134,1.388,2.17,2.839,3.101,4.342c0.01,0.016,0.021,0.032,0.031,0.049c0.219,0.354,0.43,0.712,0.638,1.072
		c0.027,0.048,0.055,0.095,0.082,0.142c0.201,0.353,0.396,0.709,0.586,1.067c0.027,0.051,0.054,0.102,0.081,0.153
		c0.191,0.364,0.376,0.73,0.555,1.099c0.018,0.038,0.036,0.076,0.055,0.114c0.186,0.386,0.366,0.774,0.539,1.165
		c0.002,0.004,0.003,0.008,0.005,0.012c1.277,2.895,2.192,5.922,2.705,9.015c0.281,1.695,0.45,3.408,0.485,5.131
		c0.072,3.572,0.213,7.816,0.081,11.317c-0.059,0.227-0.118,0.453-0.191,0.681c-0.076,0.234-0.164,0.46-0.253,0.684
		c-1.513,2.236-4.545,6.197-6.589,8.927c-9.708,12.963-28.001,18.747-45.482,13.067c-0.039-0.013-3.9-1.302-8.158-3.561
		c-5.123-2.718-8.605-5.737-9.581-8.201c-0.483-1.219,0.528-2.847,1.151-4.091l-6.823-3.502c-2.835,2.696-2.97,7.298-1.601,10.631
		c4.051,9.866,20.646,15.61,22.547,16.24C316.454,284.93,340.825,275.379,351.123,255.918z M357.398,250.236
		c0,0,8.624-4.886,17.646-2.518c5.293,1.439,7.61,5.809,6.275,10.234l0.003,0.001c0,0-0.001,0.004-0.002,0.006l0,0
		c-0.005,0.015-0.011,0.03-0.016,0.045c-0.005,0.015-0.009,0.03-0.014,0.046l0,0c-0.001,0.002-0.001,0.004-0.002,0.006l-0.003-0.001
		c-1.521,4.365-5.965,6.538-11.092,4.591C361.503,259.258,357.398,250.236,357.398,250.236z"/>
	
		<linearGradient id="SVGID_2_" gradientUnits="userSpaceOnUse" x1="419.7227" y1="35.8705" x2="441.0469" y2="43.6319" gradientTransform="matrix(0.309 0.9511 -0.9511 0.309 206.8766 -222.5044)">
		<stop  offset="0.4" style="stop-color:#83C13A"/>
		<stop  offset="0.6" style="stop-color:#32A3C6"/>
	</linearGradient>
	<path fill="url(#SVGID_2_)" d="M315.381,201.134c-1.499,0.358-3.413,0.759-5.498,1.054c-5.742,0.812-10.334,0.417-12.572-1.003
		c-0.606-0.384-0.918-1.133-1.117-1.954c0.251-0.975,0.542-1.336,1.651-2.022c1.371-0.847,3.324-1.266,5.539-1.39
		c0.64-0.036,1.303-0.047,1.979-0.037c0.001,0,0.002,0,0.004,0c1.685,0.026,3.46,0.187,5.206,0.433
		c0.018,0.003,0.036,0.005,0.054,0.008c0.688,0.098,1.371,0.208,2.043,0.329c0.012,0.002,0.024,0.004,0.036,0.007
		c0.308,0.056,0.614,0.114,0.916,0.174c0.043,0.009,0.087,0.017,0.13,0.026c0.624,0.125,1.233,0.258,1.823,0.396
		c0.038,0.009,0.076,0.018,0.114,0.027l0.62-7.967c-6.167-1.348-16.235-2.643-22.559,1.258c-0.365,0.225-0.709,0.469-1.041,0.723
		c-0.022,0.017-0.042,0.035-0.064,0.052c-0.321,0.248-0.624,0.511-0.914,0.785l0,0c-1.433,1.356-2.49,3.015-3.113,4.934
		c-0.144,0.444-0.252,0.917-0.337,1.39l-0.013,0.002c-0.019,0.104-0.027,0.207-0.041,0.31c-0.013,0.087-0.035,0.174-0.045,0.26
		l0.011,0c-0.37,3.65,2.105,7.19,5.02,8.989c5.979,3.689,15.307,2.732,21.525,1.476L315.381,201.134z"/>
	<linearGradient id="SVGID_3_" gradientUnits="userSpaceOnUse" x1="273.135" y1="132.1309" x2="287.0541" y2="149.9465">
		<stop  offset="0.4" style="stop-color:#32A3C6"/>
		<stop  offset="0.6" style="stop-color:#83C13A"/>
	</linearGradient>
	<path fill="url(#SVGID_3_)" d="M289.838,137.469c-4.054,3.853-7.873,6.124-10.453,6.287c-0.706,0.044-1.389-0.365-2.025-0.901
		c-0.366-0.93-0.342-1.394,0.151-2.597c0.611-1.491,1.945-2.978,3.664-4.38c0.497-0.405,1.026-0.804,1.58-1.193l0.002-0.001
		c1.199-0.843,2.513-1.638,3.857-2.376l-4.2-6.728c-4.919,2.75-10.136,6.671-12.175,11.637c-0.163,0.397-0.298,0.796-0.418,1.197
		c-0.008,0.027-0.014,0.053-0.021,0.08c-0.114,0.389-0.205,0.78-0.278,1.172v0c-0.363,1.939-0.242,3.903,0.382,5.821
		c0.138,0.423,0.321,0.862,0.525,1.302l-0.017,0.017c0.065,0.136,0.141,0.264,0.214,0.395c0.036,0.071,0.064,0.142,0.101,0.212
		l0.01-0.007c1.87,3.104,5.908,4.464,9.291,4.208c5.035-0.381,10.058-3.721,14.08-7.304L289.838,137.469z"/>
	<path fill="#32A3C6" d="M274.618,317.225l15.655-11.374c2.701-1.962,1.977-5.935,0.637-7.779l-45.307-62.36
		c-1.34-1.844-3.921-2.253-5.766-0.913c-1.844,1.34-2.253,3.921-0.913,5.766l43.69,60.134l-11.202,8.139l-43.69-60.134
		c-1.34-1.844-3.921-2.253-5.766-0.913c-1.844,1.34-2.253,3.921-0.913,5.766l45.307,62.36
		C267.691,317.759,271.964,319.153,274.618,317.225z"/>
	<path fill="#32A3C6" d="M289.306,334.032c0.362,4.07,0.857,8.358,1.523,11.806c0.161,1.022,0.411,2.043,0.75,3.056
		c0.413,1.35,0.913,2.512,1.513,3.413c0.386,0.687,0.799,1.366,1.276,2.023c5.693,7.844,14.444,11.188,22.585,5.429l0.003,0.004
		c0.027-0.02,0.051-0.04,0.078-0.06c0.027-0.019,0.054-0.036,0.081-0.055l-0.003-0.004c7.993-5.964,7.517-15.319,1.816-23.157
		c-0.478-0.657-0.995-1.26-1.53-1.839c-0.671-0.849-1.622-1.683-2.778-2.494c-0.859-0.635-1.753-1.189-2.675-1.658
		c-3.074-1.699-6.999-3.495-10.758-5.097c2.16-2.228,4.036-4.666,5.643-7.257l0,0c2.133-3.44,3.774-7.155,4.908-11.043
		c0.01-0.034,0.02-0.069,0.03-0.103c0.153-0.53,0.298-1.063,0.433-1.599c0.008-0.033,0.016-0.065,0.024-0.098
		c0.678-2.725,1.112-5.521,1.298-8.355c0.008-0.117,0.017-0.234,0.024-0.351c0.027-0.462,0.045-0.924,0.059-1.388
		c0.005-0.171,0.01-0.342,0.013-0.513c0.008-0.441,0.012-0.882,0.008-1.324c-0.001-0.191-0.006-0.382-0.009-0.573
		c-0.008-0.434-0.019-0.869-0.039-1.304c-0.008-0.186-0.022-0.372-0.033-0.558c-0.026-0.447-0.051-0.893-0.089-1.34
		c-0.001-0.007-0.001-0.013-0.002-0.02c-0.083-0.972-0.2-1.945-0.341-2.916c-0.035-0.24-0.065-0.48-0.103-0.72
		c-0.057-0.355-0.123-0.709-0.187-1.063c-0.053-0.294-0.106-0.588-0.164-0.881c-0.067-0.335-0.14-0.67-0.214-1.005
		c-0.07-0.315-0.142-0.63-0.217-0.945c-0.077-0.32-0.157-0.639-0.241-0.959c-0.087-0.333-0.18-0.666-0.274-0.998
		c-0.086-0.302-0.171-0.604-0.263-0.905c-0.112-0.367-0.232-0.733-0.352-1.098c-0.087-0.266-0.171-0.532-0.263-0.797
		c-0.2-0.574-0.41-1.146-0.631-1.716c-0.066-0.17-0.137-0.34-0.205-0.51c-0.2-0.5-0.406-0.999-0.623-1.495
		c-0.101-0.232-0.21-0.461-0.315-0.692c-0.179-0.393-0.36-0.786-0.549-1.176c-0.121-0.248-0.246-0.495-0.371-0.742
		c-0.189-0.373-0.381-0.745-0.58-1.115c-0.132-0.246-0.266-0.491-0.402-0.736c-0.209-0.375-0.424-0.748-0.644-1.119
		c-0.137-0.232-0.272-0.464-0.413-0.694c-0.246-0.402-0.501-0.801-0.759-1.199c-0.125-0.193-0.247-0.388-0.375-0.581
		c-0.391-0.586-0.793-1.169-1.212-1.745c-1.173-1.595-11.764-15.602-22.399-16.406c-0.428-0.032-0.849-0.037-1.267-0.027
		c-0.028,0.001-0.055,0.003-0.082,0.004c-0.405,0.012-0.805,0.046-1.201,0.098l0,0c-1.956,0.254-3.787,0.976-5.418,2.162
		c-0.531,0.386-1.07,0.851-1.577,1.378l6.364,4.916c0.784-0.65,1.228-0.771,2.535-0.674c1.607,0.12,3.433,0.93,5.299,2.131
		c0.539,0.347,1.081,0.728,1.623,1.134l0.003,0.002c1.348,1.012,2.689,2.185,3.957,3.41c0.013,0.013,0.026,0.025,0.039,0.038
		c0.499,0.483,0.987,0.975,1.459,1.467c0.009,0.009,0.017,0.018,0.025,0.027c0.217,0.226,0.429,0.453,0.639,0.68
		c0.03,0.032,0.06,0.065,0.09,0.097c0.431,0.468,0.846,0.933,1.242,1.392c0.041,0.047,0.081,0.095,0.122,0.142
		c0.163,0.19,0.323,0.379,0.479,0.566c0.031,0.038,0.064,0.076,0.095,0.114c0.179,0.216,0.353,0.429,0.522,0.64
		c0.036,0.044,0.07,0.088,0.105,0.132c0.134,0.168,0.264,0.333,0.39,0.496c0.042,0.055,0.085,0.109,0.126,0.163
		c0.153,0.2,0.302,0.397,0.443,0.588c0.32,0.44,0.629,0.885,0.93,1.332c0.1,0.148,0.194,0.298,0.291,0.447
		c0.197,0.301,0.394,0.602,0.583,0.905c0.112,0.18,0.22,0.362,0.329,0.543c0.166,0.276,0.332,0.552,0.491,0.83
		c0.112,0.194,0.22,0.39,0.328,0.586c0.148,0.268,0.294,0.536,0.436,0.805c0.107,0.203,0.212,0.407,0.316,0.612
		c0.134,0.265,0.265,0.531,0.394,0.797c0.101,0.209,0.201,0.418,0.298,0.627c0.123,0.265,0.241,0.532,0.358,0.799
		c0.093,0.211,0.187,0.422,0.276,0.635c0.114,0.272,0.222,0.544,0.33,0.817c0.083,0.208,0.168,0.416,0.247,0.625
		c0.11,0.289,0.212,0.58,0.315,0.87c0.069,0.195,0.143,0.389,0.209,0.584c0.157,0.462,0.304,0.926,0.444,1.39
		c0.076,0.251,0.144,0.504,0.215,0.756c0.065,0.232,0.133,0.463,0.194,0.695c0.071,0.269,0.135,0.539,0.201,0.809
		c0.052,0.215,0.106,0.43,0.154,0.645c0.063,0.28,0.122,0.56,0.179,0.841c0.042,0.203,0.084,0.407,0.122,0.611
		c0.055,0.29,0.107,0.581,0.156,0.872c0.032,0.19,0.063,0.381,0.092,0.572c0.047,0.303,0.091,0.606,0.131,0.909
		c0.023,0.172,0.043,0.345,0.064,0.517c0.038,0.321,0.076,0.642,0.106,0.963c0.013,0.139,0.024,0.278,0.036,0.417
		c0.031,0.354,0.06,0.708,0.081,1.061c0.003,0.056,0.005,0.111,0.008,0.167c0.101,1.789,0.087,3.572-0.043,5.336
		c-0.001,0.019-0.002,0.038-0.004,0.057c-0.031,0.415-0.07,0.829-0.115,1.242c-0.006,0.054-0.011,0.109-0.017,0.164
		c-0.045,0.404-0.096,0.806-0.153,1.207c-0.008,0.057-0.016,0.114-0.024,0.171c-0.059,0.406-0.125,0.812-0.197,1.215
		c-0.007,0.041-0.015,0.083-0.023,0.124c-0.077,0.421-0.159,0.841-0.249,1.259c-0.001,0.004-0.002,0.008-0.003,0.013
		c-0.668,3.093-1.708,6.079-3.11,8.884c-0.768,1.536-1.639,3.021-2.624,4.436c-2.041,2.932-4.422,6.448-6.586,9.203
		c-0.181,0.149-0.362,0.298-0.555,0.438c-0.199,0.145-0.403,0.275-0.607,0.405c-2.538,0.92-7.319,2.342-10.578,3.349
		c-15.474,4.781-33.673-1.292-44.476-16.162c-0.024-0.033-2.39-3.345-4.507-7.676c-2.547-5.21-3.59-9.699-2.931-12.266
		c0.326-1.27,2.1-1.993,3.335-2.633l-3.442-6.841c-3.878,0.514-6.712,4.155-7.565,7.657c-2.521,10.363,7.528,24.764,8.695,26.391
		C244.205,337.125,269.536,343.724,289.306,334.032z M297.722,333.124c0,0,9.849,1.116,15.756,8.335
		c3.436,4.275,2.742,9.172-0.939,11.968l0.002,0.002l-0.005,0.003l0,0c-0.013,0.009-0.026,0.018-0.039,0.027
		c-0.013,0.01-0.025,0.019-0.038,0.029l0,0c-0.002,0.001-0.003,0.002-0.005,0.004l-0.002-0.002
		c-3.796,2.637-8.668,1.783-11.672-2.806C295.74,342.836,297.722,333.124,297.722,333.124z"/>
	<path fill="#83C13A" d="M191.457,338.738h19.35c3.338,0,5.088-3.639,5.088-5.919v-77.081c0-2.279-1.848-4.128-4.128-4.128
		c-2.279,0-4.128,1.848-4.128,4.128v74.33h-13.847v-74.33c0-2.279-1.848-4.128-4.128-4.128c-2.279,0-4.128,1.848-4.128,4.128v77.081
		C185.538,335.099,188.176,338.738,191.457,338.738z"/>
	<path fill="#83C13A" d="M193.46,360.969c-2.099,3.505-4.219,7.265-5.707,10.447c-0.471,0.921-0.868,1.895-1.19,2.913
		c-0.459,1.335-0.738,2.569-0.782,3.65c-0.092,0.783-0.156,1.575-0.157,2.387c-0.005,9.692,5.109,17.541,15.081,17.667v0.005
		c0.033,0,0.065-0.002,0.098-0.003c0.033,0,0.065,0.003,0.098,0.003v-0.005c9.972-0.126,15.085-7.975,15.081-17.667
		c0-0.812-0.065-1.604-0.157-2.387c-0.044-1.081-0.322-2.315-0.782-3.65c-0.322-1.019-0.719-1.992-1.19-2.913
		c-1.488-3.182-3.608-6.942-5.708-10.447c3.057-0.533,6.008-1.403,8.831-2.554l0,0c3.748-1.529,7.259-3.571,10.462-6.048
		c0.028-0.022,0.057-0.044,0.085-0.066c0.436-0.339,0.866-0.685,1.29-1.04c0.026-0.022,0.051-0.044,0.077-0.065
		c2.15-1.806,4.144-3.813,5.961-5.996c0.075-0.09,0.151-0.179,0.225-0.27c0.293-0.358,0.58-0.721,0.864-1.088
		c0.105-0.135,0.209-0.271,0.312-0.407c0.266-0.352,0.528-0.707,0.785-1.066c0.111-0.155,0.22-0.312,0.329-0.469
		c0.249-0.356,0.495-0.714,0.735-1.078c0.102-0.155,0.201-0.314,0.302-0.471c0.242-0.376,0.484-0.753,0.716-1.137
		c0.003-0.006,0.007-0.012,0.01-0.017c0.505-0.835,0.981-1.691,1.438-2.56c0.113-0.214,0.229-0.426,0.339-0.643
		c0.163-0.32,0.317-0.646,0.474-0.97c0.13-0.269,0.26-0.538,0.385-0.81c0.143-0.311,0.28-0.624,0.417-0.939
		c0.129-0.296,0.256-0.593,0.379-0.892c0.126-0.304,0.249-0.61,0.368-0.917c0.125-0.321,0.246-0.644,0.365-0.969
		c0.108-0.295,0.217-0.589,0.32-0.887c0.125-0.363,0.243-0.729,0.361-1.095c0.085-0.266,0.175-0.531,0.256-0.799
		c0.176-0.582,0.342-1.169,0.498-1.76c0.047-0.177,0.089-0.355,0.134-0.533c0.132-0.522,0.259-1.047,0.375-1.576
		c0.054-0.247,0.101-0.497,0.152-0.745c0.086-0.423,0.171-0.847,0.247-1.274c0.048-0.272,0.092-0.545,0.136-0.818
		c0.067-0.413,0.13-0.827,0.187-1.243c0.038-0.277,0.074-0.554,0.107-0.832c0.051-0.426,0.096-0.854,0.137-1.284
		c0.026-0.268,0.052-0.535,0.074-0.804c0.038-0.47,0.066-0.942,0.091-1.416c0.012-0.23,0.029-0.459,0.038-0.69
		c0.028-0.704,0.045-1.412,0.045-2.124c-0.011-1.979-0.347-19.537-8.478-26.439c-0.327-0.277-0.665-0.529-1.009-0.767
		c-0.023-0.016-0.046-0.03-0.069-0.045c-0.335-0.228-0.679-0.436-1.029-0.627l0,0c-1.732-0.944-3.637-1.436-5.654-1.436
		c-0.656,0-1.35,0.064-2.002,0.192l2.175,7.714c1.016-0.065,1.447,0.098,2.447,0.945c1.229,1.042,2.231,2.77,3.034,4.839
		c0.232,0.598,0.447,1.224,0.646,1.871l0.001,0.003c0.496,1.611,0.891,3.348,1.197,5.085c0.003,0.018,0.006,0.036,0.009,0.054
		c0.12,0.684,0.226,1.369,0.318,2.045c0.002,0.012,0.003,0.024,0.005,0.036c0.042,0.311,0.081,0.619,0.118,0.925
		c0.005,0.044,0.011,0.088,0.016,0.131c0.074,0.632,0.136,1.253,0.187,1.856c0.005,0.063,0.01,0.125,0.015,0.187
		c0.02,0.25,0.038,0.496,0.055,0.739c0.003,0.049,0.007,0.099,0.01,0.148c0.018,0.28,0.033,0.555,0.046,0.824
		c0.003,0.057,0.005,0.112,0.007,0.169c0.01,0.214,0.017,0.425,0.024,0.631c0.002,0.069,0.004,0.138,0.006,0.206
		c0.007,0.252,0.011,0.499,0.013,0.736c0,0.544-0.011,1.085-0.031,1.625c-0.006,0.178-0.018,0.355-0.027,0.533
		c-0.017,0.359-0.035,0.718-0.061,1.075c-0.015,0.212-0.035,0.422-0.053,0.633c-0.028,0.321-0.056,0.642-0.091,0.96
		c-0.024,0.223-0.052,0.445-0.079,0.666c-0.037,0.304-0.077,0.607-0.12,0.908c-0.033,0.228-0.068,0.454-0.104,0.681
		c-0.047,0.293-0.097,0.585-0.15,0.876c-0.041,0.228-0.083,0.456-0.128,0.683c-0.057,0.287-0.118,0.572-0.18,0.857
		c-0.049,0.226-0.097,0.451-0.15,0.676c-0.067,0.287-0.14,0.571-0.213,0.855c-0.056,0.217-0.109,0.436-0.168,0.651
		c-0.081,0.298-0.17,0.594-0.257,0.889c-0.059,0.198-0.113,0.398-0.174,0.595c-0.145,0.466-0.298,0.928-0.458,1.386
		c-0.086,0.248-0.18,0.492-0.271,0.738c-0.083,0.226-0.165,0.453-0.252,0.677c-0.101,0.259-0.207,0.515-0.313,0.772
		c-0.084,0.205-0.167,0.41-0.254,0.612c-0.113,0.264-0.231,0.525-0.349,0.785c-0.086,0.189-0.172,0.378-0.26,0.566
		c-0.126,0.267-0.255,0.533-0.387,0.797c-0.086,0.173-0.173,0.345-0.261,0.517c-0.14,0.273-0.282,0.544-0.428,0.812
		c-0.083,0.153-0.168,0.304-0.252,0.456c-0.158,0.282-0.316,0.564-0.48,0.842c-0.071,0.12-0.144,0.239-0.216,0.358
		c-0.183,0.304-0.367,0.608-0.558,0.906c-0.03,0.047-0.061,0.093-0.092,0.14c-0.97,1.507-2.029,2.941-3.171,4.291
		c-0.012,0.015-0.024,0.03-0.037,0.044c-0.269,0.318-0.544,0.63-0.823,0.938c-0.037,0.041-0.073,0.082-0.11,0.122
		c-0.273,0.3-0.552,0.596-0.833,0.887c-0.04,0.041-0.08,0.083-0.12,0.124c-0.287,0.294-0.578,0.583-0.873,0.867
		c-0.03,0.029-0.061,0.058-0.091,0.087c-0.31,0.296-0.623,0.587-0.941,0.872c-0.003,0.003-0.006,0.006-0.01,0.009
		c-2.359,2.109-4.955,3.914-7.738,5.359c-1.525,0.791-3.102,1.481-4.73,2.047c-3.375,1.172-7.368,2.617-10.738,3.575
		c-0.234,0.014-0.467,0.028-0.706,0.028c-0.247,0-0.488-0.014-0.729-0.029c-2.594-0.748-7.298-2.407-10.526-3.508
		c-15.329-5.227-26.482-20.838-26.482-39.218c0-0.041,0.033-4.111,0.865-8.859c1.002-5.712,2.797-9.957,4.839-11.646
		c1.011-0.836,2.871-0.378,4.246-0.17l1.183-7.495c-3.44-1.863-7.82-0.645-10.568,1.686c-8.131,6.902-8.466,24.459-8.478,26.461
		C155.155,336.962,171.769,357.189,193.46,360.969z M200.803,365.181c0,0,7.312,6.691,7.848,16.004
		c0.267,5.478-3.173,9.033-7.794,9.131v0.003l-0.006,0v0c-0.016,0-0.032-0.001-0.048-0.001c-0.016,0-0.031,0.001-0.048,0.001v0
		c0,0-0.004,0-0.006,0v-0.003c-4.621-0.098-8.061-3.652-7.794-9.131C193.491,371.873,200.803,365.181,200.803,365.181z"/>
	
		<linearGradient id="SVGID_4_" gradientUnits="userSpaceOnUse" x1="612.2334" y1="-27.4941" x2="633.5576" y2="-19.7328" gradientTransform="matrix(-0.809 0.5878 -0.5878 -0.809 722.392 -88.4761)">
		<stop  offset="0.4" style="stop-color:#83C13A"/>
		<stop  offset="0.6" style="stop-color:#32A3C6"/>
	</linearGradient>
	<path fill="url(#SVGID_4_)" d="M234.518,310.047c-0.804-1.315-1.776-3.012-2.701-4.904c-2.547-5.21-3.59-9.699-2.931-12.266
		c0.178-0.695,0.794-1.223,1.513-1.666c1.005-0.062,1.438,0.103,2.433,0.946c1.229,1.042,2.231,2.77,3.034,4.839
		c0.232,0.598,0.447,1.224,0.646,1.871l0.001,0.003c0.496,1.611,0.891,3.348,1.197,5.085c0.003,0.018,0.006,0.036,0.009,0.054
		c0.12,0.684,0.226,1.369,0.318,2.045c0.002,0.012,0.003,0.024,0.005,0.036c0.042,0.311,0.081,0.619,0.118,0.925
		c0.005,0.044,0.011,0.088,0.016,0.131c0.074,0.632,0.136,1.253,0.187,1.856c0.003,0.039,0.006,0.078,0.009,0.116l7.769-1.872
		c-0.624-6.281-2.503-16.258-8.168-21.066c-0.327-0.277-0.665-0.529-1.009-0.767c-0.023-0.016-0.046-0.03-0.069-0.045
		c-0.335-0.228-0.679-0.436-1.029-0.627l0,0c-1.732-0.944-3.637-1.436-5.654-1.436c-0.467,0-0.95,0.044-1.427,0.109l-0.006-0.012
		c-0.104,0.014-0.205,0.039-0.308,0.057c-0.087,0.015-0.176,0.021-0.261,0.038l0.003,0.01c-3.586,0.776-6.188,4.224-6.998,7.552
		c-1.661,6.826,2.132,15.403,5.248,20.928L234.518,310.047z"/>
	
		<linearGradient id="SVGID_5_" gradientUnits="userSpaceOnUse" x1="392.8874" y1="295.6387" x2="406.8065" y2="313.4544" gradientTransform="matrix(0.309 0.9511 -0.9511 0.309 446.8494 -216.4698)">
		<stop  offset="0.4" style="stop-color:#32A3C6"/>
		<stop  offset="0.6" style="stop-color:#83C13A"/>
	</linearGradient>
	<path fill="url(#SVGID_5_)" d="M287.173,266.08c-4.917-2.665-8.257-5.595-9.209-7.998c-0.26-0.658-0.082-1.433,0.231-2.204
		c0.771-0.635,1.221-0.756,2.516-0.659c1.607,0.12,3.433,0.93,5.298,2.131c0.539,0.347,1.081,0.728,1.623,1.134l0.003,0.002
		c1.171,0.879,2.334,1.883,3.451,2.933l5.101-6.074c-4.135-3.829-9.476-7.579-14.829-7.983c-0.428-0.032-0.849-0.037-1.267-0.027
		c-0.028,0.001-0.055,0.003-0.082,0.004c-0.405,0.012-0.805,0.046-1.201,0.098l0,0c-1.956,0.254-3.787,0.976-5.418,2.162
		c-0.36,0.262-0.721,0.572-1.076,0.901l-0.022-0.011c-0.109,0.104-0.208,0.216-0.309,0.326c-0.056,0.056-0.115,0.104-0.17,0.162
		l0.01,0.007c-2.374,2.738-2.419,6.998-1.132,10.136c1.918,4.671,6.647,8.416,11.298,11.134L287.173,266.08z"/>
	<path fill="#32A3C6" d="M111.463,307.289l15.655,11.374c2.701,1.962,6.256,0.046,7.595-1.798l45.307-62.36
		c1.34-1.844,0.931-4.426-0.913-5.766c-1.844-1.34-4.426-0.931-5.766,0.913l-43.69,60.134l-11.202-8.139l43.69-60.134
		c1.34-1.844,0.931-4.426-0.913-5.766s-4.426-0.931-5.766,0.913l-45.307,62.36C108.814,300.866,108.809,305.36,111.463,307.289z"/>
	<path fill="#32A3C6" d="M100.017,326.451c-3.759,1.602-7.684,3.398-10.758,5.097c-0.922,0.469-1.816,1.023-2.675,1.658
		c-1.156,0.81-2.107,1.645-2.778,2.494c-0.535,0.579-1.052,1.183-1.53,1.839c-5.701,7.839-6.177,17.194,1.816,23.158l-0.003,0.004
		c0.027,0.019,0.054,0.036,0.081,0.055c0.027,0.02,0.051,0.04,0.078,0.06l0.003-0.004c8.142,5.759,16.892,2.415,22.585-5.429
		c0.477-0.657,0.891-1.336,1.276-2.023c0.6-0.901,1.1-2.062,1.513-3.413c0.339-1.013,0.589-2.034,0.75-3.056
		c0.666-3.449,1.161-7.737,1.523-11.807c2.786,1.366,5.685,2.396,8.646,3.124l0,0c3.93,0.966,7.971,1.378,12.019,1.256
		c0.036-0.001,0.072-0.002,0.108-0.003c0.552-0.018,1.103-0.045,1.655-0.083c0.034-0.002,0.067-0.005,0.101-0.007
		c2.801-0.197,5.594-0.649,8.347-1.347c0.114-0.029,0.227-0.056,0.341-0.086c0.448-0.117,0.893-0.242,1.338-0.373
		c0.164-0.048,0.328-0.096,0.492-0.146c0.422-0.128,0.842-0.261,1.262-0.401c0.181-0.06,0.361-0.123,0.542-0.186
		c0.411-0.142,0.82-0.287,1.228-0.44c0.174-0.066,0.347-0.136,0.521-0.203c0.417-0.162,0.834-0.324,1.247-0.499
		c0.006-0.003,0.012-0.005,0.018-0.008c0.899-0.379,1.787-0.791,2.668-1.225c0.217-0.107,0.436-0.21,0.652-0.321
		c0.32-0.163,0.636-0.336,0.954-0.507c0.263-0.142,0.526-0.282,0.787-0.429c0.298-0.167,0.594-0.34,0.889-0.514
		c0.278-0.164,0.555-0.329,0.831-0.499c0.28-0.172,0.56-0.347,0.837-0.525c0.29-0.186,0.577-0.377,0.864-0.569
		c0.261-0.175,0.522-0.349,0.78-0.53c0.315-0.22,0.625-0.447,0.936-0.674c0.226-0.165,0.453-0.327,0.677-0.496
		c0.485-0.367,0.964-0.744,1.437-1.131c0.142-0.116,0.281-0.235,0.421-0.352c0.414-0.345,0.825-0.694,1.229-1.054
		c0.189-0.168,0.374-0.342,0.561-0.513c0.319-0.292,0.636-0.585,0.949-0.886c0.199-0.191,0.394-0.387,0.591-0.582
		c0.297-0.295,0.591-0.593,0.881-0.896c0.193-0.202,0.385-0.405,0.576-0.61c0.292-0.315,0.58-0.635,0.866-0.958
		c0.178-0.202,0.357-0.402,0.532-0.607c0.307-0.358,0.607-0.724,0.905-1.092c0.145-0.179,0.293-0.355,0.436-0.536
		c0.437-0.553,0.867-1.116,1.285-1.692c1.154-1.608,11.203-16.01,8.682-26.372c-0.101-0.417-0.227-0.819-0.366-1.214
		c-0.009-0.026-0.02-0.051-0.03-0.077c-0.137-0.382-0.293-0.752-0.464-1.112l0,0c-0.847-1.782-2.098-3.3-3.73-4.485
		c-0.531-0.386-1.076-0.717-1.734-1.036l-2.773,7.534c0.86,0.545,1.113,0.93,1.424,2.203c0.382,1.566,0.177,3.553-0.39,5.698
		c-0.164,0.62-0.358,1.253-0.577,1.894l-0.001,0.003c-0.546,1.595-1.247,3.233-2.02,4.817c-0.008,0.016-0.016,0.033-0.024,0.049
		c-0.305,0.624-0.622,1.24-0.945,1.841c-0.006,0.011-0.012,0.022-0.018,0.032c-0.148,0.276-0.298,0.548-0.449,0.818
		c-0.021,0.038-0.043,0.077-0.064,0.115c-0.312,0.555-0.626,1.093-0.94,1.611c-0.033,0.054-0.065,0.107-0.097,0.16
		c-0.13,0.214-0.261,0.424-0.39,0.63c-0.026,0.042-0.052,0.084-0.079,0.126c-0.15,0.237-0.299,0.469-0.447,0.694
		c-0.031,0.048-0.062,0.094-0.093,0.141c-0.118,0.179-0.236,0.354-0.352,0.524c-0.039,0.057-0.078,0.114-0.116,0.171
		c-0.143,0.207-0.284,0.41-0.422,0.603c-0.32,0.44-0.647,0.872-0.98,1.296c-0.11,0.141-0.224,0.276-0.335,0.415
		c-0.225,0.281-0.451,0.56-0.681,0.834c-0.137,0.162-0.277,0.321-0.415,0.481c-0.211,0.243-0.423,0.486-0.638,0.724
		c-0.15,0.166-0.303,0.329-0.456,0.493c-0.209,0.224-0.419,0.445-0.631,0.664c-0.16,0.165-0.322,0.328-0.484,0.49
		c-0.21,0.21-0.423,0.416-0.636,0.621c-0.167,0.16-0.335,0.32-0.505,0.477c-0.214,0.199-0.432,0.394-0.649,0.588
		c-0.172,0.154-0.344,0.308-0.518,0.458c-0.223,0.192-0.449,0.379-0.675,0.567c-0.173,0.143-0.344,0.288-0.518,0.428
		c-0.241,0.194-0.486,0.38-0.731,0.568c-0.164,0.126-0.326,0.256-0.491,0.379c-0.391,0.292-0.786,0.575-1.185,0.852
		c-0.216,0.15-0.435,0.292-0.653,0.438c-0.2,0.134-0.4,0.269-0.601,0.399c-0.234,0.151-0.471,0.295-0.707,0.441
		c-0.188,0.116-0.376,0.233-0.566,0.346c-0.247,0.147-0.495,0.289-0.744,0.43c-0.181,0.103-0.361,0.205-0.543,0.305
		c-0.259,0.142-0.52,0.281-0.781,0.418c-0.171,0.089-0.343,0.178-0.515,0.265c-0.274,0.138-0.548,0.274-0.824,0.406
		c-0.157,0.075-0.315,0.148-0.472,0.221c-0.293,0.136-0.587,0.27-0.883,0.399c-0.128,0.056-0.257,0.108-0.385,0.163
		c-0.327,0.138-0.654,0.276-0.984,0.405c-0.052,0.02-0.104,0.039-0.156,0.059c-1.671,0.649-3.37,1.187-5.088,1.608
		c-0.019,0.005-0.037,0.01-0.056,0.014c-0.405,0.099-0.811,0.189-1.217,0.275c-0.054,0.011-0.107,0.023-0.161,0.034
		c-0.398,0.082-0.796,0.158-1.195,0.227c-0.057,0.01-0.113,0.02-0.17,0.03c-0.405,0.069-0.811,0.132-1.216,0.188
		c-0.042,0.006-0.083,0.011-0.125,0.017c-0.424,0.057-0.849,0.109-1.274,0.152c-0.004,0-0.009,0.001-0.013,0.001
		c-3.148,0.32-6.309,0.254-9.41-0.213c-1.699-0.256-3.38-0.625-5.03-1.124c-3.419-1.035-7.499-2.213-10.788-3.42
		c-0.197-0.126-0.395-0.252-0.588-0.392c-0.199-0.145-0.386-0.298-0.572-0.452c-1.659-2.13-4.489-6.237-6.454-9.025
		c-9.329-13.239-9.176-32.424,1.627-47.294c0.024-0.033,2.443-3.307,5.907-6.658c4.168-4.032,8.115-6.411,10.76-6.578
		c1.309-0.082,2.545,1.382,3.535,2.359l5.442-5.387c-1.688-3.529-6.026-5.099-9.619-4.828
		c-10.635,0.804-21.226,14.812-22.412,16.425C83.138,284.514,84.69,310.644,100.017,326.451z M103.481,334.175
		c0,0,1.982,9.711-3.058,17.56c-3.004,4.589-7.876,5.443-11.672,2.806l-0.002,0.002c-0.002-0.001-0.003-0.002-0.003-0.002
		l-0.002-0.001c-0.013-0.01-0.025-0.019-0.038-0.029c-0.013-0.009-0.026-0.017-0.039-0.027l0,0c0,0-0.003-0.002-0.005-0.003
		l0.002-0.002c-3.681-2.796-4.375-7.693-0.939-11.968C93.633,335.291,103.481,334.175,103.481,334.175z"/>
	<path fill="#83C13A" d="M65.304,234.846l5.98,18.403c1.032,3.175,5.034,3.714,7.202,3.01l73.309-23.819
		c2.168-0.704,3.355-3.033,2.65-5.201c-0.704-2.168-3.033-3.355-5.201-2.65l-70.692,22.969l-4.279-13.169l70.692-22.969
		c2.168-0.704,3.355-3.033,2.65-5.201c-0.704-2.168-3.033-3.355-5.201-2.65l-73.309,23.819
		C66.937,228.092,64.291,231.725,65.304,234.846z"/>
	<path fill="#83C13A" d="M44.781,243.62c-3.982-0.914-8.213-1.768-11.699-2.2c-1.022-0.163-2.07-0.24-3.138-0.231
		c-1.412-0.024-2.671,0.092-3.713,0.385c-0.773,0.154-1.547,0.338-2.319,0.589c-9.22,2.991-15.103,10.28-12.142,19.802l-0.005,0.002
		c0.01,0.031,0.022,0.061,0.033,0.092c0.01,0.031,0.018,0.062,0.028,0.094l0.005-0.002c3.202,9.445,12.246,11.883,21.463,8.883
		c0.772-0.251,1.506-0.557,2.222-0.887c1.015-0.376,2.102-1.022,3.23-1.871c0.869-0.621,1.672-1.299,2.403-2.032
		c2.566-2.399,5.487-5.577,8.172-8.656c1.451,2.742,3.191,5.28,5.158,7.609l0,0c2.612,3.092,5.639,5.8,8.985,8.081
		c0.03,0.02,0.059,0.041,0.089,0.061c0.457,0.31,0.919,0.612,1.387,0.906c0.029,0.018,0.057,0.035,0.086,0.053
		c2.382,1.487,4.907,2.763,7.545,3.816c0.109,0.043,0.217,0.088,0.326,0.131c0.431,0.168,0.865,0.329,1.302,0.485
		c0.161,0.058,0.322,0.115,0.483,0.171c0.417,0.144,0.835,0.284,1.257,0.417c0.182,0.058,0.365,0.112,0.548,0.168
		c0.416,0.126,0.832,0.25,1.252,0.366c0.179,0.049,0.361,0.094,0.541,0.141c0.433,0.114,0.865,0.228,1.302,0.33
		c0.006,0.002,0.013,0.003,0.019,0.004c0.95,0.222,1.911,0.41,2.879,0.577c0.239,0.041,0.476,0.086,0.716,0.124
		c0.355,0.056,0.712,0.102,1.069,0.151c0.296,0.04,0.592,0.081,0.889,0.116c0.34,0.04,0.68,0.074,1.022,0.107
		c0.321,0.031,0.643,0.06,0.965,0.085c0.328,0.025,0.657,0.048,0.986,0.067c0.344,0.02,0.689,0.035,1.034,0.047
		c0.314,0.012,0.627,0.024,0.942,0.03c0.384,0.007,0.768,0.006,1.153,0.004c0.28-0.001,0.559,0.002,0.839-0.004
		c0.608-0.012,1.217-0.036,1.828-0.07c0.182-0.01,0.365-0.025,0.548-0.037c0.537-0.036,1.075-0.077,1.614-0.13
		c0.252-0.025,0.503-0.057,0.755-0.086c0.429-0.049,0.858-0.099,1.288-0.159c0.273-0.038,0.547-0.081,0.82-0.124
		c0.413-0.064,0.826-0.132,1.24-0.207c0.275-0.049,0.549-0.101,0.824-0.155c0.421-0.083,0.842-0.173,1.264-0.266
		c0.263-0.058,0.525-0.116,0.787-0.178c0.458-0.109,0.916-0.229,1.374-0.351c0.223-0.06,0.446-0.115,0.668-0.177
		c0.679-0.191,1.357-0.393,2.034-0.613c1.879-0.622,18.474-6.367,22.525-16.233c0.163-0.397,0.298-0.796,0.417-1.197
		c0.008-0.027,0.014-0.053,0.021-0.08c0.114-0.389,0.205-0.78,0.278-1.172l0,0c0.363-1.939,0.242-3.903-0.382-5.821
		c-0.203-0.624-0.478-1.265-0.801-1.844l-6.664,4.452c0.376,0.946,0.354,1.407-0.143,2.619c-0.611,1.491-1.945,2.978-3.664,4.381
		c-0.497,0.405-1.026,0.804-1.58,1.193l-0.002,0.001c-1.38,0.97-2.91,1.883-4.467,2.71c-0.016,0.008-0.032,0.017-0.048,0.025
		c-0.614,0.325-1.232,0.638-1.846,0.934c-0.011,0.005-0.022,0.011-0.033,0.016c-0.282,0.136-0.564,0.268-0.844,0.398
		c-0.04,0.018-0.08,0.037-0.12,0.055c-0.578,0.266-1.149,0.516-1.707,0.751c-0.058,0.024-0.115,0.048-0.173,0.072
		c-0.231,0.096-0.46,0.19-0.686,0.281c-0.046,0.018-0.092,0.037-0.137,0.055c-0.261,0.104-0.518,0.203-0.77,0.299
		c-0.053,0.02-0.105,0.039-0.158,0.059c-0.201,0.075-0.399,0.148-0.593,0.218c-0.065,0.023-0.13,0.047-0.194,0.07
		c-0.237,0.084-0.471,0.165-0.696,0.24c-0.518,0.168-1.036,0.325-1.554,0.473c-0.172,0.049-0.343,0.092-0.515,0.139
		c-0.347,0.095-0.694,0.188-1.041,0.274c-0.206,0.051-0.412,0.097-0.618,0.145c-0.314,0.073-0.628,0.145-0.941,0.21
		c-0.219,0.046-0.439,0.088-0.658,0.131c-0.3,0.058-0.601,0.114-0.901,0.166c-0.227,0.039-0.453,0.076-0.679,0.112
		c-0.293,0.046-0.587,0.088-0.88,0.128c-0.23,0.031-0.459,0.062-0.689,0.09c-0.29,0.035-0.581,0.065-0.871,0.094
		c-0.23,0.023-0.459,0.047-0.689,0.066c-0.294,0.025-0.586,0.043-0.879,0.062c-0.224,0.014-0.448,0.031-0.671,0.042
		c-0.309,0.015-0.617,0.022-0.925,0.03c-0.207,0.006-0.414,0.015-0.62,0.018c-0.488,0.006-0.974,0.003-1.46-0.007
		c-0.263-0.006-0.524-0.019-0.785-0.03c-0.241-0.009-0.482-0.017-0.721-0.03c-0.278-0.016-0.554-0.038-0.831-0.059
		c-0.221-0.017-0.441-0.032-0.661-0.052c-0.286-0.026-0.57-0.058-0.855-0.089c-0.206-0.023-0.413-0.046-0.618-0.072
		c-0.293-0.037-0.586-0.078-0.877-0.121c-0.191-0.028-0.382-0.058-0.572-0.089c-0.303-0.049-0.604-0.101-0.905-0.156
		c-0.171-0.032-0.341-0.065-0.512-0.099c-0.317-0.063-0.634-0.127-0.949-0.196c-0.136-0.03-0.272-0.063-0.407-0.095
		c-0.346-0.08-0.692-0.161-1.034-0.25c-0.054-0.014-0.107-0.03-0.161-0.044c-1.733-0.457-3.424-1.021-5.061-1.69
		c-0.018-0.007-0.036-0.014-0.053-0.021c-0.385-0.158-0.767-0.323-1.146-0.493c-0.05-0.022-0.1-0.044-0.15-0.067
		c-0.37-0.167-0.737-0.341-1.101-0.519c-0.052-0.025-0.104-0.05-0.155-0.076c-0.368-0.182-0.733-0.37-1.095-0.563
		c-0.037-0.02-0.074-0.04-0.111-0.06c-0.377-0.203-0.751-0.411-1.121-0.626c-0.004-0.002-0.007-0.004-0.011-0.007
		c-2.735-1.591-5.254-3.503-7.488-5.703c-1.224-1.205-2.367-2.492-3.408-3.866c-2.158-2.847-4.766-6.199-6.718-9.108
		c-0.086-0.218-0.171-0.436-0.245-0.663c-0.076-0.234-0.137-0.468-0.198-0.702c-0.091-2.698,0.034-7.685,0.084-11.095
		c0.234-16.194,11.634-31.625,29.115-37.305c0.039-0.013,3.92-1.239,8.693-1.915c5.742-0.812,10.334-0.417,12.572,1.003
		c1.107,0.703,1.247,2.614,1.473,3.986l7.579-1.178c0.709-3.847-1.887-7.649-4.953-9.542c-9.076-5.6-25.879-0.493-27.786,0.114
		C55.776,199.771,41.673,221.823,44.781,243.62z M43.043,251.906c0,0-4.104,9.022-12.796,12.409
		c-5.128,1.947-9.571-0.226-11.092-4.591l-0.003,0.001c-0.001-0.002-0.001-0.004-0.001-0.004l-0.001-0.002
		c-0.005-0.015-0.009-0.03-0.014-0.046c-0.005-0.015-0.011-0.03-0.016-0.045l0,0c-0.001-0.002-0.001-0.004-0.001-0.004l0.002-0.003
		c-1.335-4.425,0.983-8.795,6.275-10.234C34.42,247.02,43.043,251.906,43.043,251.906z"/>
	
		<linearGradient id="SVGID_6_" gradientUnits="userSpaceOnUse" x1="373.5337" y1="-246.3266" x2="394.8579" y2="-238.5652" gradientTransform="matrix(-0.809 -0.5878 0.5878 -0.809 571.1915 290.4352)">
		<stop  offset="0.4" style="stop-color:#83C13A"/>
		<stop  offset="0.6" style="stop-color:#32A3C6"/>
	</linearGradient>
	<path fill="url(#SVGID_6_)" d="M105.898,266.933c1.002-1.171,2.316-2.62,3.829-4.084c4.168-4.032,8.115-6.411,10.76-6.578
		c0.716-0.045,1.408,0.377,2.052,0.925c0.37,0.937,0.347,1.4-0.148,2.606c-0.611,1.491-1.945,2.978-3.664,4.381
		c-0.497,0.405-1.026,0.804-1.58,1.193l-0.003,0.002c-1.379,0.969-2.909,1.882-4.466,2.71c-0.016,0.009-0.032,0.017-0.048,0.025
		c-0.614,0.325-1.232,0.638-1.846,0.934c-0.011,0.005-0.022,0.011-0.033,0.016c-0.282,0.136-0.564,0.268-0.844,0.398
		c-0.04,0.018-0.08,0.037-0.12,0.055c-0.578,0.266-1.149,0.516-1.707,0.751c-0.036,0.015-0.072,0.03-0.108,0.045l4.181,6.81
		c5.781-2.534,14.688-7.404,17.511-14.278c0.163-0.397,0.298-0.796,0.417-1.197c0.008-0.027,0.014-0.053,0.021-0.08
		c0.114-0.389,0.205-0.78,0.278-1.172l0,0c0.363-1.939,0.242-3.903-0.382-5.821c-0.144-0.444-0.336-0.89-0.544-1.323l0.009-0.009
		c-0.045-0.095-0.1-0.183-0.149-0.275c-0.041-0.078-0.074-0.161-0.117-0.237l-0.009,0.006c-1.846-3.17-5.929-4.58-9.345-4.322
		c-7.005,0.53-13.99,6.787-18.282,11.459L105.898,266.933z"/>
	
		<linearGradient id="SVGID_7_" gradientUnits="userSpaceOnUse" x1="527.2498" y1="0.9968" x2="541.1689" y2="18.8125" gradientTransform="matrix(-0.809 0.5878 -0.5878 -0.809 607.7734 -11.1737)">
		<stop  offset="0.4" style="stop-color:#32A3C6"/>
		<stop  offset="0.6" style="stop-color:#83C13A"/>
	</linearGradient>
	<path fill="url(#SVGID_7_)" d="M174.286,284.516c0.423,0.236,0.753,0.445,1.113,0.707c1.632,1.186,2.884,2.703,3.73,4.485l0,0
		c0.171,0.36,0.327,0.73,0.464,1.112c0.01,0.026,0.02,0.051,0.03,0.077c0.138,0.395,0.264,0.797,0.366,1.214
		c1.269,5.216-0.647,11.454-3.01,16.571l-7.353-2.974c0.654-1.387,1.249-2.803,1.723-4.189l0.001-0.004
		c0.219-0.64,0.413-1.274,0.577-1.894c0.567-2.145,0.772-4.132,0.39-5.698c-0.308-1.262-0.562-1.652-1.404-2.19
		c-0.83-0.06-1.623,0.01-2.168,0.461c-1.992,1.648-3.746,5.73-4.761,11.23l-7.475-3.023c1.148-5.263,3.248-10.918,7.098-14.185
		c2.586-2.195,6.721-3.441,10.058-2.03L174.286,284.516z"/>
	
		<linearGradient id="SVGID_8_" gradientUnits="userSpaceOnUse" x1="524.8092" y1="16.2109" x2="524.8092" y2="16.2109" gradientTransform="matrix(-0.809 0.5878 -0.5878 -0.809 607.7734 -11.1737)">
		<stop  offset="0.4" style="stop-color:#32A3C6"/>
		<stop  offset="0.6" style="stop-color:#83C13A"/>
	</linearGradient>
	<path fill="url(#SVGID_8_)" d="M173.665,284.187"/>
	<path fill="#32A3C6" d="M70.639,149.054l-5.98,18.403c-1.032,3.175,1.889,5.964,4.057,6.668l73.309,23.819
		c2.168,0.704,4.497-0.482,5.201-2.65s-0.482-4.497-2.65-5.201l-70.692-22.969l4.279-13.169l70.692,22.969
		c2.168,0.704,4.497-0.482,5.201-2.65c0.704-2.168-0.482-4.497-2.65-5.201l-73.309-23.819
		C75.929,144.55,71.653,145.934,70.639,149.054z"/>
	<path fill="#32A3C6" d="M48.877,144.089c-2.685-3.08-5.606-6.258-8.172-8.656c-0.731-0.732-1.534-1.411-2.403-2.032
		c-1.128-0.849-2.215-1.496-3.23-1.871c-0.716-0.329-1.45-0.636-2.222-0.887c-9.217-2.999-18.261-0.561-21.463,8.883l-0.005-0.002
		c-0.01,0.032-0.018,0.062-0.028,0.094c-0.01,0.031-0.022,0.061-0.033,0.092l0.005,0.002c-2.961,9.523,2.923,16.812,12.142,19.802
		c0.772,0.25,1.546,0.434,2.319,0.589c1.042,0.292,2.301,0.409,3.713,0.385c1.068,0.009,2.117-0.068,3.138-0.231
		c3.486-0.432,7.717-1.286,11.699-2.2c-0.438,3.072-0.522,6.147-0.299,9.188v0c0.296,4.037,1.153,8.007,2.52,11.819
		c0.012,0.034,0.024,0.068,0.036,0.101c0.188,0.519,0.384,1.035,0.59,1.548c0.013,0.031,0.026,0.062,0.038,0.093
		c1.053,2.603,2.346,5.12,3.861,7.522c0.062,0.099,0.124,0.199,0.187,0.298c0.25,0.389,0.507,0.775,0.768,1.158
		c0.096,0.141,0.193,0.282,0.291,0.422c0.252,0.362,0.509,0.72,0.771,1.076c0.113,0.154,0.229,0.305,0.344,0.458
		c0.262,0.347,0.526,0.692,0.798,1.032c0.116,0.145,0.237,0.288,0.354,0.432c0.283,0.346,0.566,0.693,0.86,1.032
		c0.004,0.005,0.009,0.01,0.013,0.015c0.638,0.738,1.305,1.455,1.99,2.159c0.169,0.174,0.335,0.35,0.506,0.521
		c0.254,0.254,0.516,0.501,0.776,0.75c0.216,0.206,0.431,0.413,0.651,0.616c0.251,0.232,0.507,0.459,0.764,0.687
		c0.242,0.214,0.485,0.426,0.731,0.636c0.251,0.213,0.503,0.425,0.758,0.634c0.267,0.218,0.537,0.433,0.809,0.646
		c0.247,0.194,0.493,0.388,0.745,0.578c0.306,0.231,0.618,0.456,0.93,0.681c0.227,0.164,0.451,0.33,0.681,0.49
		c0.499,0.347,1.006,0.686,1.52,1.018c0.154,0.099,0.31,0.195,0.465,0.292c0.456,0.287,0.915,0.57,1.382,0.844
		c0.218,0.128,0.441,0.25,0.662,0.374c0.376,0.213,0.753,0.424,1.135,0.628c0.243,0.13,0.49,0.256,0.736,0.382
		c0.372,0.191,0.746,0.379,1.124,0.561c0.251,0.121,0.504,0.241,0.758,0.359c0.39,0.181,0.783,0.356,1.179,0.527
		c0.247,0.107,0.493,0.215,0.742,0.319c0.435,0.181,0.876,0.353,1.318,0.524c0.215,0.083,0.428,0.169,0.645,0.249
		c0.661,0.244,1.329,0.479,2.006,0.699c1.886,0.601,18.688,5.708,27.765,0.107c0.365-0.225,0.709-0.469,1.041-0.723
		c0.022-0.017,0.042-0.035,0.064-0.052c0.321-0.248,0.624-0.511,0.914-0.785l0,0c1.433-1.356,2.49-3.015,3.113-4.934
		c0.203-0.624,0.365-1.318,0.466-2.042l-8.038-0.236c-0.252,0.986-0.54,1.346-1.655,2.035c-1.371,0.847-3.324,1.266-5.539,1.39
		c-0.64,0.036-1.303,0.047-1.979,0.037l-0.004,0c-1.685-0.026-3.46-0.187-5.206-0.433c-0.018-0.003-0.036-0.005-0.054-0.008
		c-0.688-0.098-1.371-0.208-2.043-0.329c-0.012-0.002-0.024-0.004-0.036-0.007c-0.308-0.056-0.614-0.114-0.916-0.174
		c-0.043-0.009-0.087-0.017-0.13-0.026c-0.624-0.125-1.233-0.258-1.823-0.396c-0.061-0.014-0.122-0.029-0.182-0.043
		c-0.244-0.058-0.484-0.117-0.72-0.176c-0.048-0.012-0.096-0.024-0.144-0.036c-0.272-0.069-0.538-0.14-0.798-0.211
		c-0.055-0.015-0.108-0.03-0.163-0.045c-0.207-0.057-0.409-0.115-0.607-0.172c-0.066-0.019-0.133-0.039-0.198-0.058
		c-0.241-0.072-0.478-0.143-0.704-0.215c-0.518-0.168-1.029-0.346-1.536-0.531c-0.168-0.061-0.332-0.127-0.498-0.19
		c-0.336-0.127-0.672-0.255-1.004-0.39c-0.197-0.08-0.39-0.164-0.585-0.246c-0.297-0.125-0.593-0.252-0.885-0.383
		c-0.205-0.092-0.407-0.186-0.609-0.281c-0.277-0.129-0.553-0.261-0.826-0.395c-0.206-0.102-0.411-0.205-0.615-0.309
		c-0.264-0.135-0.527-0.273-0.787-0.413c-0.204-0.11-0.408-0.22-0.61-0.332c-0.255-0.143-0.508-0.289-0.759-0.436
		c-0.199-0.116-0.399-0.232-0.596-0.351c-0.252-0.153-0.5-0.31-0.748-0.467c-0.189-0.12-0.381-0.238-0.568-0.361
		c-0.259-0.17-0.512-0.345-0.766-0.519c-0.17-0.117-0.344-0.231-0.512-0.35c-0.398-0.282-0.79-0.57-1.177-0.863
		c-0.209-0.159-0.412-0.323-0.618-0.485c-0.189-0.149-0.38-0.297-0.566-0.449c-0.216-0.176-0.426-0.356-0.638-0.536
		c-0.169-0.143-0.338-0.286-0.504-0.431c-0.216-0.189-0.428-0.382-0.639-0.575c-0.153-0.14-0.307-0.28-0.458-0.422
		c-0.215-0.203-0.428-0.407-0.638-0.614c-0.138-0.135-0.275-0.271-0.411-0.408c-0.216-0.218-0.43-0.437-0.64-0.658
		c-0.12-0.126-0.238-0.254-0.356-0.381c-0.22-0.237-0.438-0.475-0.652-0.716c-0.093-0.105-0.183-0.211-0.274-0.316
		c-0.233-0.268-0.465-0.537-0.69-0.811c-0.035-0.043-0.069-0.087-0.105-0.13c-1.134-1.388-2.17-2.839-3.101-4.342
		c-0.01-0.016-0.021-0.032-0.031-0.049c-0.219-0.354-0.43-0.712-0.638-1.072c-0.027-0.048-0.055-0.095-0.082-0.142
		c-0.201-0.353-0.396-0.709-0.586-1.067c-0.027-0.051-0.054-0.102-0.081-0.153c-0.191-0.364-0.376-0.73-0.555-1.099
		c-0.018-0.038-0.036-0.076-0.055-0.113c-0.186-0.386-0.366-0.774-0.539-1.165c-0.002-0.004-0.003-0.008-0.005-0.012
		c-1.277-2.895-2.192-5.922-2.705-9.015c-0.281-1.695-0.45-3.408-0.485-5.131c-0.072-3.572-0.213-7.816-0.081-11.317
		c0.059-0.227,0.118-0.453,0.191-0.681c0.076-0.234,0.164-0.46,0.253-0.684c1.513-2.236,4.545-6.197,6.589-8.927
		c9.708-12.963,28.001-18.747,45.482-13.067c0.039,0.013,3.9,1.302,8.158,3.56c5.123,2.718,8.605,5.737,9.581,8.201
		c0.483,1.219-0.528,2.847-1.151,4.091l6.805,3.511c2.835-2.696,2.988-7.307,1.619-10.641c-4.051-9.866-20.646-15.61-22.547-16.24
		C83.546,115.078,59.175,124.629,48.877,144.089z M42.602,149.771c0,0-8.623,4.886-17.646,2.518
		c-5.293-1.439-7.61-5.809-6.275-10.234l-0.003-0.001c0.001-0.002,0.001-0.004,0.001-0.004l0.001-0.002
		c0.005-0.015,0.011-0.03,0.016-0.045c0.005-0.015,0.009-0.03,0.014-0.046l0,0c0,0,0.001-0.004,0.002-0.006l0.003,0.001
		c1.521-4.365,5.965-6.538,11.092-4.591C38.497,140.75,42.602,149.771,42.602,149.771z"/>
	<path fill="#83C13A" d="M125.272,82.769l-15.655,11.374c-2.701,1.962-1.977,5.935-0.637,7.779l45.307,62.36
		c1.34,1.844,3.921,2.253,5.766,0.913c1.844-1.34,2.253-3.921,0.913-5.766l-43.69-60.134l11.202-8.139l43.69,60.134
		c1.34,1.844,3.921,2.253,5.766,0.913s2.253-3.921,0.913-5.766l-45.307-62.36C132.2,82.234,127.927,80.84,125.272,82.769z"/>
	<path fill="#83C13A" d="M110.585,65.961c-0.362-4.07-0.857-8.358-1.523-11.806c-0.161-1.022-0.411-2.043-0.75-3.056
		c-0.413-1.35-0.913-2.512-1.513-3.413c-0.386-0.687-0.799-1.366-1.276-2.023c-5.693-7.844-14.444-11.188-22.585-5.429l-0.003-0.004
		c-0.027,0.02-0.051,0.04-0.078,0.06c-0.027,0.019-0.054,0.036-0.081,0.055l0.003,0.004c-7.993,5.964-7.517,15.319-1.816,23.157
		c0.478,0.657,0.995,1.26,1.53,1.839c0.671,0.849,1.622,1.683,2.778,2.494c0.859,0.635,1.753,1.189,2.675,1.658
		c3.074,1.699,6.999,3.495,10.758,5.097c-2.16,2.228-4.036,4.666-5.643,7.257l0,0c-2.133,3.44-3.774,7.155-4.908,11.043
		c-0.01,0.034-0.02,0.069-0.03,0.103c-0.153,0.53-0.298,1.063-0.433,1.599c-0.008,0.033-0.016,0.065-0.024,0.098
		c-0.678,2.725-1.112,5.521-1.298,8.355c-0.008,0.117-0.017,0.234-0.024,0.351c-0.027,0.462-0.045,0.924-0.059,1.388
		c-0.005,0.171-0.01,0.342-0.013,0.513c-0.008,0.441-0.012,0.882-0.008,1.324c0.001,0.191,0.006,0.382,0.009,0.573
		c0.008,0.434,0.019,0.869,0.039,1.304c0.008,0.186,0.022,0.372,0.033,0.558c0.026,0.447,0.051,0.893,0.089,1.34
		c0.001,0.007,0.001,0.013,0.002,0.02c0.083,0.972,0.2,1.945,0.341,2.916c0.035,0.24,0.065,0.48,0.103,0.72
		c0.057,0.355,0.123,0.709,0.187,1.063c0.053,0.294,0.106,0.588,0.164,0.881c0.067,0.335,0.14,0.67,0.214,1.005
		c0.07,0.315,0.142,0.63,0.217,0.945c0.077,0.32,0.157,0.639,0.241,0.959c0.087,0.333,0.18,0.666,0.274,0.998
		c0.086,0.302,0.171,0.604,0.263,0.905c0.112,0.367,0.232,0.733,0.352,1.098c0.087,0.266,0.171,0.532,0.263,0.797
		c0.2,0.574,0.41,1.146,0.631,1.716c0.066,0.17,0.137,0.34,0.205,0.51c0.2,0.5,0.406,0.999,0.623,1.495
		c0.101,0.232,0.21,0.461,0.315,0.692c0.179,0.393,0.36,0.786,0.549,1.176c0.121,0.248,0.246,0.495,0.371,0.742
		c0.189,0.373,0.381,0.745,0.58,1.115c0.132,0.246,0.266,0.491,0.402,0.736c0.209,0.375,0.424,0.748,0.644,1.119
		c0.137,0.232,0.272,0.464,0.413,0.694c0.246,0.402,0.501,0.801,0.759,1.199c0.125,0.193,0.247,0.388,0.375,0.581
		c0.391,0.586,0.793,1.169,1.212,1.745c1.173,1.595,11.764,15.602,22.399,16.406c0.428,0.032,0.849,0.037,1.267,0.027
		c0.028-0.001,0.055-0.003,0.082-0.004c0.405-0.012,0.805-0.046,1.201-0.098l0,0c1.956-0.254,3.787-0.976,5.418-2.162
		c0.531-0.386,1.055-0.845,1.507-1.332l-6.294-4.962c-0.784,0.65-1.228,0.771-2.535,0.674c-1.607-0.12-3.433-0.93-5.299-2.131
		c-0.539-0.347-1.081-0.728-1.623-1.134l-0.003-0.002c-1.348-1.012-2.689-2.185-3.957-3.41c-0.013-0.013-0.026-0.025-0.039-0.038
		c-0.499-0.483-0.987-0.975-1.459-1.467c-0.009-0.009-0.017-0.018-0.025-0.027c-0.217-0.226-0.429-0.453-0.639-0.679
		c-0.03-0.032-0.06-0.065-0.09-0.097c-0.431-0.468-0.846-0.933-1.242-1.392c-0.041-0.048-0.081-0.095-0.122-0.142
		c-0.163-0.19-0.323-0.379-0.479-0.566c-0.031-0.038-0.064-0.076-0.095-0.114c-0.179-0.216-0.353-0.429-0.522-0.64
		c-0.036-0.044-0.07-0.088-0.105-0.132c-0.134-0.168-0.264-0.333-0.39-0.496c-0.042-0.055-0.085-0.109-0.126-0.163
		c-0.153-0.2-0.302-0.397-0.443-0.588c-0.32-0.44-0.629-0.885-0.93-1.332c-0.1-0.148-0.194-0.298-0.291-0.447
		c-0.197-0.301-0.394-0.602-0.583-0.905c-0.112-0.18-0.22-0.362-0.329-0.543c-0.166-0.276-0.332-0.552-0.491-0.83
		c-0.112-0.194-0.22-0.39-0.328-0.586c-0.148-0.268-0.294-0.536-0.436-0.805c-0.107-0.203-0.212-0.407-0.316-0.612
		c-0.134-0.265-0.265-0.531-0.394-0.797c-0.101-0.209-0.201-0.418-0.298-0.627c-0.123-0.265-0.241-0.532-0.358-0.799
		c-0.093-0.211-0.187-0.422-0.276-0.635c-0.114-0.272-0.222-0.544-0.33-0.817c-0.083-0.208-0.168-0.416-0.247-0.625
		c-0.11-0.289-0.212-0.58-0.315-0.87c-0.069-0.195-0.143-0.389-0.209-0.584c-0.157-0.462-0.304-0.926-0.444-1.39
		c-0.076-0.251-0.144-0.504-0.215-0.756c-0.065-0.232-0.133-0.463-0.194-0.695c-0.071-0.269-0.135-0.539-0.201-0.809
		c-0.052-0.215-0.106-0.43-0.154-0.645c-0.063-0.28-0.122-0.56-0.179-0.841c-0.042-0.203-0.084-0.407-0.122-0.611
		c-0.055-0.29-0.107-0.581-0.156-0.872c-0.032-0.191-0.063-0.381-0.092-0.572c-0.047-0.303-0.091-0.606-0.131-0.909
		c-0.023-0.172-0.043-0.345-0.064-0.517c-0.038-0.321-0.075-0.642-0.106-0.963c-0.013-0.139-0.024-0.278-0.036-0.417
		c-0.031-0.354-0.06-0.708-0.081-1.061c-0.003-0.056-0.005-0.111-0.008-0.167c-0.101-1.789-0.087-3.572,0.043-5.336
		c0.001-0.019,0.002-0.038,0.004-0.057c0.031-0.415,0.07-0.829,0.115-1.242c0.006-0.054,0.011-0.109,0.017-0.164
		c0.045-0.404,0.096-0.806,0.153-1.207c0.008-0.057,0.016-0.114,0.024-0.171c0.059-0.407,0.125-0.812,0.197-1.215
		c0.007-0.041,0.015-0.083,0.023-0.124c0.077-0.421,0.159-0.841,0.249-1.259c0.001-0.004,0.002-0.008,0.003-0.013
		c0.668-3.093,1.708-6.079,3.11-8.884c0.768-1.536,1.639-3.021,2.624-4.436c2.041-2.932,4.422-6.448,6.586-9.203
		c0.181-0.149,0.362-0.298,0.555-0.438c0.199-0.145,0.403-0.275,0.607-0.405c2.538-0.92,7.319-2.342,10.578-3.349
		c15.474-4.781,33.673,1.292,44.476,16.162c0.024,0.033,2.39,3.345,4.507,7.676c2.547,5.21,3.59,9.699,2.931,12.266
		c-0.326,1.27-2.1,1.993-3.335,2.633l3.462,6.844c3.878-0.514,6.692-4.158,7.545-7.66c2.521-10.363-7.528-24.764-8.695-26.391
		C155.686,62.868,130.355,56.269,110.585,65.961z M102.169,66.869c0,0-9.849-1.116-15.756-8.335
		c-3.436-4.275-2.742-9.172,0.939-11.968l-0.002-0.002c0.002-0.001,0.003-0.002,0.005-0.003l0,0
		c0.013-0.009,0.026-0.018,0.039-0.027c0.013-0.01,0.025-0.019,0.038-0.029l0,0c0.002-0.001,0.003-0.002,0.005-0.004l0.002,0.002
		c3.796-2.637,8.668-1.783,11.672,2.806C104.151,57.158,102.169,66.869,102.169,66.869z"/>
	
		<linearGradient id="SVGID_9_" gradientUnits="userSpaceOnUse" x1="329.5748" y1="-70.7695" x2="350.899" y2="-63.0081" gradientTransform="matrix(0.309 -0.9511 0.9511 0.309 75.351 485.0164)">
		<stop  offset="0.4" style="stop-color:#83C13A"/>
		<stop  offset="0.6" style="stop-color:#32A3C6"/>
	</linearGradient>
	<path fill="url(#SVGID_9_)" d="M107.3,131.291c1.423,0.591,3.207,1.393,5.068,2.38c5.123,2.718,8.605,5.737,9.581,8.201
		c0.264,0.667,0.076,1.456-0.245,2.237c-0.777,0.641-1.224,0.762-2.524,0.665c-1.607-0.12-3.433-0.93-5.298-2.131
		c-0.539-0.347-1.081-0.728-1.623-1.134l-0.003-0.002c-1.348-1.012-2.689-2.185-3.957-3.41c-0.013-0.013-0.026-0.025-0.039-0.038
		c-0.499-0.483-0.987-0.975-1.459-1.467c-0.009-0.009-0.017-0.018-0.025-0.027c-0.217-0.226-0.429-0.453-0.639-0.679
		c-0.03-0.032-0.06-0.065-0.09-0.097c-0.431-0.468-0.846-0.933-1.242-1.392c-0.026-0.03-0.051-0.059-0.076-0.089l-5.185,6.081
		c4.197,4.715,11.581,11.681,18.99,12.242c0.428,0.032,0.849,0.037,1.267,0.027c0.028-0.001,0.055-0.003,0.082-0.004
		c0.405-0.012,0.805-0.046,1.201-0.098l0,0c1.956-0.254,3.787-0.976,5.418-2.162c0.378-0.275,0.743-0.594,1.09-0.927l0.012,0.006
		c0.076-0.073,0.143-0.152,0.215-0.227c0.061-0.063,0.13-0.12,0.189-0.184l-0.008-0.007c2.445-2.735,2.524-7.054,1.223-10.223
		c-2.668-6.498-10.778-11.208-16.547-13.846L107.3,131.291z"/>
	
		<linearGradient id="SVGID_10_" gradientUnits="userSpaceOnUse" x1="346.6985" y1="13.4416" x2="360.6176" y2="31.2573" gradientTransform="matrix(-0.809 -0.5878 0.5878 -0.809 373.5024 426.6056)">
		<stop  offset="0.4" style="stop-color:#32A3C6"/>
		<stop  offset="0.6" style="stop-color:#83C13A"/>
	</linearGradient>
	<path fill="url(#SVGID_10_)" d="M90.543,197.81c5.544-0.734,9.969-0.327,12.152,1.058c0.597,0.379,0.909,1.111,1.108,1.919
		c-0.251,0.967-0.543,1.329-1.649,2.012c-1.371,0.847-3.324,1.266-5.539,1.39c-0.64,0.036-1.303,0.047-1.979,0.037l-0.004,0
		c-1.464-0.023-2.995-0.151-4.516-0.345l-0.557,7.912c5.596,0.667,12.121,0.561,16.69-2.258c0.365-0.225,0.709-0.469,1.041-0.723
		c0.022-0.017,0.042-0.035,0.064-0.052c0.321-0.248,0.624-0.511,0.914-0.785l0,0c1.433-1.356,2.49-3.015,3.113-4.934
		c0.138-0.423,0.247-0.886,0.341-1.362l0.024-0.004c0.027-0.149,0.041-0.297,0.059-0.445c0.012-0.078,0.032-0.152,0.043-0.231
		l-0.012,0c0.311-3.61-2.156-7.084-5.043-8.866c-4.297-2.651-10.324-2.902-15.684-2.367L90.543,197.81z"/>
	<linearGradient id="SVGID_11_" gradientUnits="userSpaceOnUse" x1="157.6574" y1="108.1054" x2="178.6021" y2="99.2149">
		<stop  offset="0.45" style="stop-color:#32A3C6"/>
		<stop  offset="0.55" style="stop-color:#83C13A"/>
	</linearGradient>
	<path fill="url(#SVGID_11_)" d="M165.949,90.909c0.671,1.142,1.411,2.481,2.125,3.941c2.547,5.21,3.59,9.699,2.931,12.266
		c-0.18,0.7-0.802,1.23-1.529,1.675c-0.956,0.05-1.395-0.125-2.367-0.948c-1.229-1.042-2.231-2.77-3.034-4.839
		c-0.232-0.598-0.447-1.224-0.646-1.871c0-0.001-0.001-0.002-0.001-0.002c-0.496-1.612-0.892-3.349-1.197-5.086
		c-0.003-0.018-0.006-0.036-0.009-0.054c-0.12-0.684-0.226-1.369-0.318-2.045c-0.002-0.012-0.003-0.024-0.005-0.036
		c-0.035-0.256-0.066-0.51-0.097-0.763l-7.412,4.002c1,5.874,3.112,12.878,7.578,16.669c0.327,0.277,0.665,0.529,1.009,0.767
		c0.023,0.016,0.046,0.03,0.069,0.045c0.335,0.228,0.679,0.436,1.029,0.627l0,0c1.732,0.944,3.637,1.436,5.654,1.436
		c0.656,0,1.041-0.041,1.718-0.143l0.267-0.066c3.574-0.783,6.152-4.229,6.961-7.552c1.751-7.195-2.557-16.332-5.746-21.793
		L165.949,90.909z"/>
</g>
</svg>
