<?xml version="1.0" standalone="no"?>
<!DOCTYPE svg PUBLIC "-//W3C//DTD SVG 1.1//EN" "http://www.w3.org/Graphics/SVG/1.1/DTD/svg11.dtd" >
<svg xmlns="http://www.w3.org/2000/svg">
<metadata>Generated by IcoMoon</metadata>
<defs>
<font id="Starkey" horiz-adv-x="1024">
<font-face units-per-em="1024" ascent="960" descent="-64" />
<missing-glyph horiz-adv-x="1024" />
<glyph unicode="&#x20;" d="" horiz-adv-x="512" />
<glyph unicode="&#xe600;" d="M130.555 473.6h762.89v-51.2h-762.89v51.2z" />
<glyph unicode="&#xe601;" d="M893.445 473.6h-355.845v355.845h-51.2v-355.845h-355.845v-51.2h355.845v-355.845h51.2v355.845h355.845z" />
<glyph unicode="&#xe602;" d="M769.774 248.993h-72.934v-36.070c0-10.012 1.196-16.952 3.64-20.879 2.56-3.924 6.94-5.747 12.972-5.747 6.372 0 10.696 1.592 13.312 4.892 2.388 3.3 3.812 10.524 3.812 21.732v8.76h39.199v-9.784c0-19.628-4.664-34.307-14.336-44.319-9.556-9.784-23.836-14.735-42.839-14.735-17.124 0-30.607 5.235-40.392 15.703-9.784 10.524-14.792 24.975-14.792 43.351v85.734c0 16.499 5.46 30.095 16.328 40.451 10.696 10.468 24.635 15.644 41.702 15.644 17.523 0 30.892-4.892 40.279-14.392 9.444-9.784 14.052-23.611 14.052-41.702v-48.637zM637.501 197.565c0-13.54-3.016-23.836-8.988-31.119-5.916-7.283-14.679-10.808-25.943-10.808-7.508 0-14.167 1.308-20.027 4.152-5.747 2.788-11.32 7.055-16.271 12.972v-14.679h-38.572v258.798h38.572v-83.29c5.176 5.747 10.639 10.127 16.271 13.199 5.916 3.072 11.776 4.495 17.636 4.495 12.175 0 21.335-4.040 27.648-12.119 6.484-8.136 9.672-20.14 9.672-35.727v-105.874zM499.028 158.083h-38.118v20.992c-7.055-7.795-14.451-13.655-22.131-17.692-7.567-4.096-14.904-6.144-22.075-6.144-8.876 0-15.475 2.844-20.027 8.591-4.38 5.747-6.656 14.167-6.656 25.6v159.58h38.060v-146.437c0-4.552 0.968-7.852 2.388-9.784 1.708-2.104 4.38-3.016 7.908-3.016 2.732 0 6.428 1.308 10.696 3.983 4.268 2.673 8.192 6.144 11.832 10.296v144.96h38.118v-190.93zM373.243 379.218h-44.431v-221.135h-43.067v221.135h-44.378v37.663h131.873v-37.663zM751.398 465.467h-478.684c-76.122 0-137.848-61.727-137.848-137.848v-110.766c0-76.006 61.727-137.733 137.848-137.733h478.684c76.122 0 137.733 61.727 137.733 137.733v110.766c0 76.119-61.612 137.848-137.733 137.848zM713.81 320.381c-6.088 0-10.468-1.764-13.084-5.292-2.616-3.356-3.868-9.103-3.868-17.068v-19.4h33.679v19.4c0 7.964-1.364 13.711-3.983 17.068-2.732 3.528-6.94 5.292-12.744 5.292zM582.3 320.996c-2.732 0-5.519-0.625-8.192-1.82-2.616-1.252-5.235-3.244-7.795-5.86v-118.961c3.016-3.072 6.144-5.348 9.044-6.712s5.972-2.104 9.16-2.104c4.664 0 8.192 1.364 10.355 4.040 2.104 2.732 3.3 7.112 3.3 13.199v98.593c0 6.543-1.308 11.32-4.040 14.735-2.785 3.241-6.769 4.89-11.832 4.89zM390.948 816.883l-29.983-113.897h-3.072l-31.404 113.897h-48.699l57.574-172.096v-112.929h48.356v118.162l56.266 166.863zM487.731 695.596c0 4.608 1.649 8.192 4.892 11.151 3.3 2.788 7.567 4.211 12.8 4.211 5.688 0 10.184-1.423 13.768-4.211 3.528-2.959 5.292-6.543 5.292-11.151v-114.578c0-5.688-1.764-10.068-5.176-13.312-3.412-3.185-8.079-4.836-13.88-4.836-5.632 0-10.071 1.592-13.084 4.78-3.072 3.185-4.608 7.567-4.608 13.368v114.578zM505.536 526.459c19.571 0 34.875 5.12 46.083 15.416 11.036 10.24 16.556 24.292 16.556 42.271v108.662c0 16.044-5.688 29.243-16.896 39.368-11.379 10.127-25.999 15.247-43.807 15.247-19.515 0-35.044-4.892-46.538-14.508-11.607-9.672-17.408-22.587-17.408-38.915v-109.005c0-17.864 5.632-32.031 16.84-42.668 11.323-10.522 26.342-15.869 45.171-15.869zM633.088 528.786c8.079 0 16.328 2.276 24.863 6.656 8.591 4.552 16.896 11.095 24.804 19.628v-23.212h42.895v210.212h-42.895v-159.636c-4.040-4.495-8.532-8.307-13.256-11.264-4.892-2.959-8.876-4.495-12.119-4.495-3.868 0-6.828 1.137-8.648 3.412-1.764 2.22-2.732 5.86-2.732 10.752v161.229h-43.011v-175.736c0-12.572 2.616-21.903 7.68-28.16 5.007-6.257 12.347-9.385 22.418-9.385z" />
<glyph unicode="&#xe603;" d="M770.691 615.368c26.683 15.997 47.199 41.321 56.822 71.521-24.968-14.81-52.646-25.597-82.081-31.386-23.562 25.132-57.155 40.817-94.321 40.817-71.393 0-129.257-57.876-129.257-129.247 0-10.135 1.149-19.991 3.333-29.435-107.428 5.356-202.662 56.837-266.406 135.035-11.123-19.098-17.503-41.308-17.503-65.001 0-44.823 22.822-84.388 57.49-107.574-21.169 0.684-41.106 6.484-58.529 16.133 0-0.512 0-1.039 0-1.61 0-62.602 44.552-114.862 103.695-126.725-10.872-2.954-22.277-4.541-34.081-4.541-8.325 0-16.42 0.809-24.33 2.317 16.428-51.354 64.189-88.691 120.753-89.731-44.224-34.688-99.96-55.352-160.525-55.352-10.447 0-20.71 0.614-30.838 1.818 57.201-36.68 125.138-58.086 198.121-58.086 237.757 0 367.793 196.941 367.793 367.762 0 5.596-0.148 11.19-0.387 16.724 25.244 18.222 47.176 40.988 64.489 66.9-23.181-10.299-48.082-17.229-74.237-20.339z" />
<glyph unicode="&#xe604;" d="M766.356 118.415l-254.356 254.359-254.356-254.359-36.206 36.204 290.563 290.563 290.563-290.563zM766.356 450.819l-254.356 254.356-254.356-254.356-36.206 36.204 290.563 290.563 290.563-290.563z" />
<glyph unicode="&#xe605;" d="M512 934.4c-268.631 0-486.4-217.769-486.4-486.4s217.769-486.4 486.4-486.4 486.4 217.769 486.4 486.4-217.769 486.4-486.4 486.4zM737.743 536.358c0.202-4.705 0.328-9.459 0.328-14.216 0-145.198-110.531-312.599-312.625-312.599-62.034 0-119.782 18.196-168.404 49.37 8.609-1.021 17.334-1.544 26.212-1.544 51.479 0 98.854 17.567 136.445 47.050-48.077 0.883-88.676 32.62-102.641 76.27 6.723-1.28 13.604-1.969 20.682-1.969 10.033 0 19.727 1.349 28.969 3.86-50.273 10.084-88.141 54.505-88.141 107.717 0 0.486 0 0.934 0 1.37 14.81-8.2 31.757-13.13 49.751-13.714-29.466 19.709-48.865 53.338-48.865 91.438 0 20.14 5.425 39.017 14.879 55.25 54.185-66.47 135.132-110.226 226.447-114.78-1.856 8.028-2.831 16.404-2.831 25.019 0 60.667 49.183 109.86 109.868 109.86 31.59 0 60.145-13.332 80.174-34.693 25.019 4.92 48.545 14.090 69.768 26.678-8.179-25.669-25.618-47.196-48.3-60.792 22.234 2.642 43.4 8.532 63.101 17.288-14.717-22.024-33.362-41.375-54.817-56.863z" />
<glyph unicode="&#xe606;" d="M512 934.4c-268.631 0-486.4-217.769-486.4-486.4s217.769-486.4 486.4-486.4 486.4 217.769 486.4 486.4-217.769 486.4-486.4 486.4zM624.965 447.808h-73.887c0-118.077 0-263.488 0-263.488h-109.54c0 0 0 143.982 0 263.488h-52.065v93.11h52.065v60.232c0 43.133 20.488 110.531 110.528 110.531l81.106-0.32v-90.36c0 0-49.316 0-58.89 0-9.595 0-23.206-4.797-23.206-25.352v-54.733h83.451l-9.562-93.107z" />
<glyph unicode="&#xe607;" d="M512 934.4c-268.631 0-486.4-217.769-486.4-486.4s217.769-486.4 486.4-486.4 486.4 217.769 486.4 486.4-217.769 486.4-486.4 486.4zM758.779 275.2h-493.558v286.907l246.774-169.59 246.784 169.582v-286.899zM511.995 451.213l-246.766 169.587h493.55l-246.784-169.587z" />
<glyph unicode="&#xe608;" d="M381.706 35.098l-41.331 30.221 279.821 382.682-279.821 382.682 41.331 30.221 301.919-412.902z" />
<glyph unicode="&#xe609;" d="M540.068 618.606v98.194h-181.043c-30.72 0-55.626-24.909-55.626-55.626v-426.348c0-30.72 24.909-55.626 55.626-55.626h305.94c30.725 0 55.639 24.909 55.639 55.626v301.45h-98.199c-45.399 0-82.337 36.933-82.337 82.33zM633.285 278.426h-257.859c-11.561 0-20.936 9.377-20.936 20.931 0 11.574 9.372 20.946 20.936 20.946h257.859c11.556 0 20.923-9.372 20.923-20.946 0.005-11.553-9.362-20.931-20.923-20.931zM633.285 365.67h-257.859c-11.561 0-20.936 9.372-20.936 20.931 0 11.569 9.372 20.941 20.936 20.941h257.859c11.556 0 20.923-9.372 20.923-20.941 0.005-11.558-9.362-20.931-20.923-20.931zM654.213 475.899c0-11.569-9.367-20.941-20.923-20.941h-257.859c-11.561 0-20.936 9.372-20.936 20.941 0 11.561 9.372 20.936 20.936 20.936h257.859c11.556 0 20.923-9.375 20.923-20.936zM622.403 562.98h98.199l-153.825 153.82v-98.194c0-30.717 24.909-55.626 55.626-55.626z" />
<glyph unicode="&#xe60a;" d="M512 844.8c105.989 0 205.635-41.275 280.581-116.219s116.219-174.592 116.219-280.581-41.275-205.635-116.219-280.581c-74.947-74.944-174.592-116.219-280.581-116.219s-205.635 41.275-280.581 116.219c-74.944 74.947-116.219 174.592-116.219 280.581s41.275 205.635 116.219 280.581c74.947 74.944 174.592 116.219 280.581 116.219M512 870.4c-233.285 0-422.4-189.115-422.4-422.4s189.115-422.4 422.4-422.4 422.4 189.115 422.4 422.4-189.115 422.4-422.4 422.4v0zM391.816 643.84l339.205-195.84-339.205-195.84z" />
<glyph unicode="&#xe60b;" d="M512 844.8c105.989 0 205.635-41.275 280.581-116.219 74.944-74.947 116.219-174.592 116.219-280.581s-41.275-205.635-116.219-280.581c-74.947-74.944-174.592-116.219-280.581-116.219s-205.635 41.275-280.581 116.219c-74.944 74.947-116.219 174.592-116.219 280.581s41.275 205.635 116.219 280.581c74.947 74.944 174.592 116.219 280.581 116.219M512 870.4c-233.285 0-422.4-189.115-422.4-422.4s189.115-422.4 422.4-422.4 422.4 189.115 422.4 422.4-189.115 422.4-422.4 422.4v0zM512 683.52l70.702-143.26 158.095-22.971-114.399-111.511 27.005-157.458-141.404 74.34-141.404-74.34 27.005 157.458-114.399 111.511 158.095 22.971z" />
<glyph unicode="&#xe60c;" d="M647.299 491.046l-139.087 122.053 59.617 65.3 240.333-224.256v-12.306l-240.333-224.238-59.617 65.285 139.087 122.053h-431.46v86.108h431.46z" />
<glyph unicode="&#xe60d;" d="M555.046 312.701l122.053 139.087 65.3-59.617-224.256-240.333h-12.306l-224.238 240.333 65.285 59.617 122.053-139.087v431.46h86.108v-431.46z" />
<glyph unicode="&#xe60e;" d="M761.997 411.174c1.219 9.226 18.217 22.876 18.765 32.169 0.988 16.901-21.847 49.961-37.53 56.31-24.904 10.071-151.48 5.361-151.48 5.361-12.365 21.622 22.047 75.018 31.508 98.079 13.891 33.787 11.551 78.618-6.021 101.647-21.458 28.134-60.851 30.013-61.665 17.418-5.868-91.315-23.352-116.649-46.756-134.707-14.060-10.844-26.353-20.332-32.84-36.864-39.89-101.591-69.448-125.112-86.344-125.112h-11.264v-230.907l118.241-21.99c0 0 146.796-13.896 193.019 0 14.541 4.357 39.644 26.199 45.578 40.218 3.389 8.044-1.316 27.085 2.693 34.852 5.908 11.505 30.853 25.917 30.833 41.554-0.020 11.141-13.015 30.438-12.068 41.554 0.942 11.131 24.146 26.388 24.125 37.535-0.046 11.694-20.332 31.283-18.796 42.885zM355.848 200.202c0-12.447-10.086-22.533-22.533-22.533h-67.584c-12.436 0-22.523 10.086-22.523 22.533v214.006c0 12.442 10.086 22.528 22.523 22.528h67.584c12.447 0 22.533-10.086 22.533-22.528v-214.006z" />
<glyph unicode="&#xe60f;" d="M512 934.4c-268.631 0-486.4-217.769-486.4-486.4s217.769-486.4 486.4-486.4 486.4 217.769 486.4 486.4-217.769 486.4-486.4 486.4zM845.076 114.924c-43.264-43.264-93.642-77.23-149.732-100.954-58.061-24.558-119.747-37.010-183.345-37.010s-125.284 12.452-183.345 37.010c-56.090 23.724-106.465 57.69-149.732 100.954-43.264 43.264-77.23 93.64-100.954 149.729-24.558 58.063-37.010 119.752-37.010 183.347 0 63.598 12.452 125.284 37.010 183.345 23.724 56.090 57.69 106.465 100.954 149.729s93.642 77.23 149.732 100.954c58.061 24.561 119.747 37.012 183.345 37.012s125.284-12.452 183.345-37.010c56.090-23.724 106.465-57.69 149.732-100.954s77.23-93.64 100.954-149.729c24.558-58.063 37.010-119.749 37.010-183.347 0-63.596-12.452-125.284-37.010-183.345-23.724-56.090-57.69-106.465-100.954-149.732zM512 683.52l-70.702-143.26-158.098-22.971 114.401-111.511-27.005-157.458 141.404 74.34 141.404-74.34-27.005 157.458 114.399 111.511-158.095 22.971z" />
<glyph unicode="&#xe610;" d="M512 934.4c-268.631 0-486.4-217.769-486.4-486.4 0-158.356 75.694-299.018 192.852-387.832v0c38.876-29.471 82.314-53.228 129.075-70.026v0c5.501-1.976 11.052-3.855 16.645-5.637v0c46.623-14.858 96.282-22.904 147.827-22.904v0 0c268.631 0 486.4 217.769 486.4 486.4s-217.769 486.4-486.4 486.4zM178.924 114.924c-43.264 43.264-77.23 93.64-100.954 149.729-24.558 58.063-37.010 119.752-37.010 183.347 0 63.598 12.452 125.284 37.010 183.345 23.724 56.090 57.69 106.465 100.954 149.729s93.642 77.23 149.732 100.954c58.061 24.561 119.747 37.012 183.345 37.012s125.284-12.452 183.345-37.010c56.090-23.724 106.465-57.69 149.732-100.954s77.23-93.64 100.954-149.729c24.558-58.063 37.010-119.749 37.010-183.347 0-63.596-12.452-125.284-37.010-183.345-23.724-56.090-57.69-106.465-100.954-149.729-13.012-13.012-26.683-25.167-40.945-36.475-7.99 93.827-37.471 332.378-81.096 376.146-26.043 26.125-53.325 39.34-80.965 39.34l-49.93 0.248h-160.276l-49.93-0.248c-27.615 0-54.925-13.215-80.965-39.34-43.622-43.768-73.106-282.317-81.096-376.146-14.267 11.305-27.935 23.46-40.95 36.472zM676.498 6.502c-5.519-2.061-11.067-4.017-16.645-5.862v345.513h16.645v-339.651zM347.53 6.492v339.661h16.643v-345.523c-5.576 1.846-11.123 3.804-16.643 5.862zM509.929 517.32h1.326c65.213 0 118.566 54.787 118.815 122.068-0.276 67.008-53.85 121.71-119.503 121.987-31.836-0.138-61.793-12.69-84.275-35.476-22.868-23.063-35.282-53.793-35.146-86.428-0.138-33.185 12.36-64.11 35.282-87.173 22.341-22.564 51.971-34.977 83.502-34.977z" />
<glyph unicode="&#xe611;" d="M512 919.040c63.596 0 125.284-12.452 183.345-37.010 56.090-23.724 106.465-57.69 149.732-100.954s77.23-93.64 100.954-149.729c24.558-58.063 37.010-119.749 37.010-183.347 0-63.596-12.452-125.284-37.010-183.345-23.724-56.090-57.69-106.465-100.954-149.729-43.264-43.264-93.642-77.23-149.732-100.954-58.061-24.561-119.749-37.012-183.345-37.012-63.598 0-125.284 12.452-183.345 37.010-56.090 23.724-106.465 57.69-149.729 100.954-43.264 43.264-77.23 93.64-100.954 149.729-24.561 58.063-37.012 119.752-37.012 183.347 0 63.598 12.452 125.284 37.010 183.345 23.724 56.090 57.69 106.465 100.954 149.729 43.264 43.264 93.64 77.23 149.729 100.954 58.063 24.561 119.749 37.012 183.347 37.012M512 934.4c-268.631 0-486.4-217.769-486.4-486.4s217.769-486.4 486.4-486.4c268.631 0 486.4 217.769 486.4 486.4s-217.769 486.4-486.4 486.4v0zM261.304 621.146h406.597v-276.833h-406.597v276.833zM783.178 240.812h-421.105v40.96h380.145v250.376h40.96z" />
<glyph unicode="&#xe612;" d="M512 919.040c63.598 0 125.284-12.452 183.345-37.010 56.090-23.724 106.465-57.69 149.729-100.954 43.264-43.264 77.23-93.64 100.954-149.729 24.561-58.063 37.012-119.749 37.012-183.347 0-63.596-12.452-125.284-37.010-183.345-23.724-56.090-57.69-106.465-100.954-149.729-43.264-43.264-93.64-77.23-149.729-100.954-58.063-24.561-119.749-37.012-183.347-37.012s-125.284 12.452-183.345 37.010c-56.090 23.724-106.465 57.69-149.729 100.954-43.264 43.264-77.23 93.64-100.954 149.729-24.561 58.063-37.012 119.752-37.012 183.347 0 63.598 12.452 125.284 37.010 183.345 23.724 56.090 57.69 106.465 100.954 149.729 43.264 43.264 93.64 77.23 149.729 100.954 58.063 24.561 119.749 37.012 183.347 37.012M512 934.4c-268.631 0-486.4-217.769-486.4-486.4s217.769-486.4 486.4-486.4 486.4 217.769 486.4 486.4-217.769 486.4-486.4 486.4v0zM391.816 643.84l339.205-195.84-339.205-195.84z" />
<glyph unicode="&#xe613;" d="M512 919.040c63.598 0 125.284-12.452 183.345-37.010 56.090-23.724 106.465-57.69 149.729-100.954s77.23-93.64 100.954-149.729c24.561-58.063 37.012-119.749 37.012-183.347 0-63.596-12.452-125.284-37.010-183.345-23.724-56.090-57.69-106.465-100.954-149.729s-93.64-77.23-149.729-100.954c-58.063-24.561-119.749-37.012-183.347-37.012-63.596 0-125.284 12.452-183.345 37.010-56.090 23.724-106.465 57.69-149.729 100.954-43.264 43.264-77.23 93.64-100.954 149.729-24.561 58.063-37.012 119.752-37.012 183.347 0 63.598 12.452 125.284 37.010 183.345 23.724 56.090 57.69 106.465 100.954 149.729s93.642 77.23 149.729 100.954c58.063 24.561 119.752 37.012 183.347 37.012M512 934.4c-268.631 0-486.4-217.769-486.4-486.4s217.769-486.4 486.4-486.4 486.4 217.769 486.4 486.4-217.769 486.4-486.4 486.4v0zM302.216 512.973h443.008v-66.56h-443.008v66.56zM302.216 618.788h443.008v-66.56h-443.008v66.56zM302.216 407.165h443.008v-66.56h-443.008v66.56zM302.223 301.348h292.7v-66.56h-292.7v66.56z" />
<glyph unicode="&#xe614;" d="M512 919.040c63.596 0 125.284-12.452 183.345-37.010 56.090-23.724 106.465-57.69 149.729-100.954 43.264-43.264 77.23-93.64 100.954-149.729 24.561-58.063 37.012-119.749 37.012-183.347 0-63.596-12.452-125.284-37.010-183.345-23.724-56.090-57.69-106.465-100.954-149.729-43.264-43.264-93.642-77.23-149.729-100.954-58.063-24.561-119.752-37.012-183.347-37.012s-125.284 12.452-183.345 37.010c-56.090 23.724-106.465 57.69-149.729 100.954-43.264 43.264-77.23 93.64-100.954 149.729-24.561 58.063-37.012 119.752-37.012 183.347 0 63.598 12.452 125.284 37.010 183.345 23.724 56.090 57.69 106.465 100.954 149.729s93.64 77.23 149.729 100.954c58.063 24.561 119.752 37.012 183.347 37.012M512 934.4c-268.631 0-486.4-217.769-486.4-486.4s217.769-486.4 486.4-486.4 486.4 217.769 486.4 486.4-217.769 486.4-486.4 486.4v0zM443.215 145.902c-2.824 0-5.66 0.12-8.517 0.364-0.75 0.064-1.495 0.169-2.23 0.315-2.826 0.561-69.335 14.561-79.109 90.112l40.62 5.256c5.486-42.391 38.218-53.089 45.55-54.966 16.745-0.991 39.419 5.716 51.482 27.753 0.602 3.223 1.034 6.717 1.49 10.371 0.527 4.247 1.073 8.64 1.946 13.225 4.355 22.927 14.221 43.725 30.154 63.588 11.338 14.131 25.551 23.603 38.093 31.959 3.284 2.186 6.569 4.375 9.8 6.646 30.234 21.256 47.905 49.062 54.029 85.010 6.656 39.058-2.33 73.288-27.466 104.643-19.94 24.873-46.413 40.287-78.679 45.814-30.241 5.179-57.702 0.876-83.958-13.161-29.048-15.534-48.788-37.949-60.347-68.529l-38.316 14.484c15.007 39.695 41.705 70.031 79.347 90.163 34.107 18.24 71.181 24.1 110.188 17.413 42.435-7.268 77.332-27.648 103.726-60.567 32.422-40.445 44.498-86.587 35.886-137.142-7.944-46.607-31.78-84.165-70.851-111.636-3.51-2.468-7.078-4.849-10.644-7.224-11.049-7.363-21.486-14.318-28.856-23.506-11.64-14.508-18.793-29.422-21.865-45.599-0.625-3.297-1.070-6.861-1.539-10.634-0.668-5.366-1.357-10.913-2.678-16.748-0.356-1.574-0.899-3.1-1.613-4.549-16.169-32.75-49.178-52.851-85.642-52.854zM571.517 437.22c-0.026 1.58-0.010 3.164 0.008 4.749 0.028 2.478 0.054 4.818-0.143 6.559-2.273 20.116-9.528 35.835-22.182 48.054-18.268 17.636-38.799 24.671-62.748 21.522-27.648-3.64-47.084-18.053-59.418-44.060l-37.010 17.551c18.245 38.467 49.741 61.676 91.082 67.118 36.088 4.754 69.486-6.541 96.543-32.663 19.512-18.839 31.096-43.374 34.432-72.927 0.481-4.257 0.438-8.159 0.399-11.602-0.013-1.226-0.028-2.452-0.010-3.679l-40.952-0.622zM678.438 532.695c-18.414 91.182-97.917 99.597-98.719 99.671l3.786 40.786c38.193-3.546 115.574-35.768 135.084-132.344l-40.151-8.113zM754.665 532.275c-33.347 165.11-175.053 176.481-181.066 176.886l2.532 40.881c1.853-0.11 45.942-3.052 94.799-30.413 45.102-25.26 103.204-76.859 123.886-179.244l-40.151-8.11z" />
<glyph unicode="&#xe615;" d="M512 919.040c63.598 0 125.284-12.452 183.345-37.010 56.090-23.724 106.465-57.69 149.732-100.954s77.23-93.64 100.954-149.729c24.558-58.063 37.010-119.749 37.010-183.347 0-63.596-12.452-125.284-37.010-183.345-23.724-56.090-57.69-106.465-100.954-149.729-43.264-43.264-93.642-77.23-149.732-100.954-58.061-24.561-119.747-37.012-183.345-37.012s-125.284 12.452-183.345 37.010c-56.090 23.724-106.465 57.69-149.729 100.954s-77.23 93.642-100.954 149.729c-24.561 58.063-37.012 119.752-37.012 183.347 0 63.598 12.452 125.284 37.010 183.345 23.724 56.090 57.69 106.465 100.954 149.729s93.64 77.23 149.729 100.954c58.063 24.561 119.749 37.012 183.347 37.012M512 934.4c-268.631 0-486.4-217.769-486.4-486.4s217.769-486.4 486.4-486.4c268.631 0 486.4 217.769 486.4 486.4s-217.769 486.4-486.4 486.4v0zM352.161 663.040h319.677c30.362 0 55.201-24.84 55.201-55.201v-319.677c0-30.362-24.842-55.201-55.201-55.201h-319.677c-30.362 0-55.201 24.84-55.201 55.201v319.677c0 30.362 24.84 55.201 55.201 55.201v0zM610.255 615.255c-10.65 0-19.361-8.712-19.361-19.361v-46.346c0-10.65 8.712-19.361 19.361-19.361h48.612c10.65 0 19.361 8.712 19.361 19.361v46.346c0 10.65-8.712 19.361-19.361 19.361h-48.612zM678.428 481.162h-37.855c3.581-11.697 5.514-24.079 5.514-36.902 0-71.537-59.853-129.528-133.681-129.528-73.828 0-133.678 57.992-133.678 129.528 0 12.823 1.933 25.206 5.514 36.902h-39.498v-181.673c0-9.403 7.693-17.096 17.096-17.096h299.492c9.403 0 17.096 7.693 17.096 17.096v181.673zM512.41 532.626c-47.703 0-86.377-37.471-86.377-83.692 0-46.223 38.671-83.694 86.377-83.694 47.706 0 86.374 37.471 86.374 83.694 0 46.221-38.671 83.692-86.374 83.692z" />
<glyph unicode="&#xe616;" d="M352.161 663.040h319.677c30.362 0 55.201-24.84 55.201-55.201v-319.677c0-30.362-24.842-55.201-55.201-55.201h-319.677c-30.362 0-55.201 24.84-55.201 55.201v319.677c0 30.362 24.84 55.201 55.201 55.201v0zM610.255 615.255c-10.65 0-19.361-8.712-19.361-19.361v-46.346c0-10.65 8.712-19.361 19.361-19.361h48.612c10.65 0 19.361 8.712 19.361 19.361v46.346c0 10.65-8.712 19.361-19.361 19.361h-48.612zM678.428 481.162h-37.855c3.581-11.697 5.514-24.079 5.514-36.902 0-71.537-59.853-129.528-133.681-129.528-73.828 0-133.678 57.992-133.678 129.528 0 12.823 1.933 25.206 5.514 36.902h-39.498v-181.673c0-9.403 7.693-17.096 17.096-17.096h299.492c9.403 0 17.096 7.693 17.096 17.096v181.673zM512.41 532.626c-47.703 0-86.377-37.471-86.377-83.692 0-46.223 38.671-83.694 86.377-83.694 47.706 0 86.374 37.471 86.374 83.694 0 46.221-38.671 83.692-86.374 83.692z" />
<glyph unicode="&#xe617;" d="M512 919.040c63.598 0 125.284-12.452 183.345-37.010 56.090-23.724 106.465-57.69 149.732-100.954s77.23-93.64 100.954-149.729c24.558-58.063 37.010-119.749 37.010-183.347 0-63.596-12.452-125.284-37.010-183.345-23.724-56.090-57.69-106.465-100.954-149.729-43.264-43.264-93.642-77.23-149.732-100.954-58.061-24.561-119.747-37.012-183.345-37.012s-125.284 12.452-183.345 37.010c-56.090 23.724-106.465 57.69-149.729 100.954s-77.23 93.642-100.954 149.729c-24.561 58.063-37.012 119.752-37.012 183.347 0 63.598 12.452 125.284 37.010 183.345 23.724 56.090 57.69 106.465 100.954 149.729s93.64 77.23 149.729 100.954c58.063 24.561 119.749 37.012 183.347 37.012M512 934.4c-268.631 0-486.4-217.769-486.4-486.4s217.769-486.4 486.4-486.4c268.631 0 486.4 217.769 486.4 486.4s-217.769 486.4-486.4 486.4v0zM634.527 540.918h-83.451v54.733c0 20.554 13.614 25.352 23.206 25.352 9.574 0 58.89 0 58.89 0v90.358l-81.106 0.32c-90.040 0-110.531-67.397-110.531-110.531v-60.232h-52.065v-93.11h52.065c0-119.506 0-263.488 0-263.488h109.537c0 0 0 145.411 0 263.488h73.889l9.564 93.11z" />
<glyph unicode="&#xe618;" d="M624.965 447.808h-73.887c0-118.077 0-263.488 0-263.488h-109.54c0 0 0 143.982 0 263.488h-52.065v93.11h52.065v60.232c0 43.133 20.488 110.531 110.528 110.531l81.106-0.32v-90.36c0 0-49.316 0-58.89 0-9.595 0-23.206-4.797-23.206-25.352v-54.733h83.451l-9.562-93.107z" />
<glyph unicode="&#xe619;" d="M537.009 447.99l-161.162 203.684 76.096 57.446 196.211-261.13-194.714-261.11-77.594 55.949 161.162 205.161z" />
<glyph unicode="&#xe61a;" d="M511.99 422.991l203.684 161.162 57.446-76.096-261.13-196.211-261.11 194.714 55.949 77.594 205.161-161.162z" />
<glyph unicode="&#xe61b;" d="M799.826 699.62l-36.206 36.204-251.62-251.617-251.62 251.617-36.206-36.204 251.62-251.62-251.62-251.62 36.206-36.204 251.62 251.617 251.62-251.617 36.206 36.204-251.62 251.62z" />
<glyph unicode="&#xe61c;" d="M684.093 550.354l25.792 36.485c8.927 12.698 5.115 30.705-8.607 40.218l-105.789 73.748c-13.678 9.549-32.041 6.999-41.006-5.665l-25.748-36.48 155.359-108.306zM505.856 626.266l-155.054-219.558c-7.196-46.943 109.842-128.993 155.369-108.311l155.087 219.564-155.402 108.306zM327.135 369.595c-9.907-23.514-20.639-137.088-17.18-168.573 0.709-6.326 1.851-9.669 3.855-10.964 11.674-7.747 145.106 56.645 165.507 73.864-46.354-14.899-152.655 59.436-152.182 105.674zM512 919.040c63.598 0 125.284-12.452 183.345-37.010 56.090-23.724 106.465-57.69 149.729-100.954 43.264-43.264 77.23-93.64 100.954-149.729 24.561-58.063 37.012-119.749 37.012-183.347 0-63.596-12.452-125.284-37.010-183.345-23.724-56.090-57.69-106.465-100.954-149.729-43.264-43.264-93.64-77.23-149.729-100.954-58.063-24.561-119.752-37.012-183.347-37.012-63.596 0-125.284 12.452-183.345 37.010-56.090 23.724-106.465 57.69-149.729 100.954s-77.23 93.642-100.954 149.729c-24.561 58.063-37.012 119.752-37.012 183.347 0 63.598 12.452 125.284 37.010 183.345 23.724 56.090 57.69 106.465 100.954 149.729s93.64 77.23 149.729 100.954c58.063 24.561 119.752 37.012 183.347 37.012M512 934.4c-268.631 0-486.4-217.769-486.4-486.4s217.769-486.4 486.4-486.4c268.631 0 486.4 217.769 486.4 486.4s-217.769 486.4-486.4 486.4v0z" />
</font>
</defs>
</svg>
