<svg xmlns="http://www.w3.org/2000/svg" width="178.154" height="83.36"><path fill="#00718C" d="M109.935 75.43l.009 4.024h-1.327v-6.948h.142l4.186 3.961.008-3.9h1.327v6.948h-.142l-4.203-4.085z"/><g fill="#00718C"><path d="M33.128 72.519h.734v3.229h3.709v-3.229h.733v6.929h-.733v-3.038h-3.709v3.037h-.734v-6.928zM38.371 79.514h-.865v-3.037h-3.578v3.037h-.864v-7.061h.864v3.229h3.578v-3.229h.865v7.061zm-.734-.132h.603v-6.798h-.603v3.23h-3.841v-3.23h-.602v6.798h.602v-3.037h3.841v3.037z"/></g><g fill="#00718C"><path d="M41.259 72.519h4.219v.652h-3.484v2.477h3.107v.642h-3.107v2.507h3.627v.651h-4.361v-6.929zM45.687 79.514h-4.493v-7.061h4.351v.783h-3.485v2.346h3.107v.772h-3.107v2.376h3.627v.784zm-4.361-.132h4.229v-.521h-3.628v-2.639h3.108v-.51h-3.108v-2.607h3.485v-.521h-4.087v6.798z"/></g><g fill="#00718C"><path d="M50.236 72.446h.123l2.935 7.001h-.774l-.632-1.559h-3.179l-.622 1.559h-.724l2.873-7.001zm1.396 4.811l-1.069-2.649c-.133-.326-.265-.805-.265-.825-.011.021-.143.499-.275.815l-1.061 2.659h2.67zM53.392 79.514h-.918l-.631-1.559h-3.091l-.621 1.559h-.866l2.927-7.133h.21l.018.041 2.972 7.092zm-.829-.132h.632l-2.88-6.87h-.034l-2.82 6.87h.582l.621-1.559h3.268l.631 1.559zm-.833-2.06h-2.864l1.096-2.749c.099-.235.198-.562.245-.72l.033-.101.102.024.021-.003c.007.036.131.489.261.809l1.106 2.74zm-2.67-.131h2.476l-1.034-2.559c-.072-.18-.154-.431-.208-.613-.054.173-.132.416-.21.604l-1.024 2.568z"/></g><g fill="#00718C"><path d="M55.728 72.519h2.079c1.447 0 2.466.683 2.466 2.12 0 1.019-.561 1.682-1.457 1.956l1.691 2.853h-.865l-1.59-2.73-.326.01h-1.264v2.721h-.734v-6.93zm2.039 3.576c1.131 0 1.742-.479 1.742-1.456 0-1-.622-1.468-1.742-1.468h-1.305v2.924h1.305zM60.623 79.514h-1.02l-.019-.033-1.568-2.695-.29.007h-1.198v2.722h-.865v-7.061h2.145c1.608 0 2.532.797 2.532 2.186 0 .977-.506 1.682-1.425 1.993l1.708 2.881zm-.944-.132h.713l-1.676-2.825.08-.025c.91-.278 1.411-.951 1.411-1.893 0-1.306-.875-2.055-2.4-2.055h-2.013v6.798h.602v-2.722h1.33l.32-.009.041-.004.021.036 1.571 2.699zm-1.912-3.222h-1.371v-3.055h1.371c1.183 0 1.808.529 1.808 1.533 0 .996-.625 1.522-1.808 1.522zm-1.239-.131h1.239c1.112 0 1.676-.469 1.676-1.391 0-.931-.563-1.402-1.676-1.402h-1.239v2.793z"/></g><g fill="#00718C"><path d="M63.167 72.519h.744v6.929h-.744v-6.929zM63.976 79.514h-.875v-7.061h.875v7.061zm-.744-.132h.613v-6.798h-.613v6.798z"/></g><g fill="#00718C"><path d="M67.976 74.627c-.184-.214-.448-.58-.479-.631 0 .051.061.5.061.774v4.677h-.692v-7.001h.122l4.137 4.892c.184.225.448.602.479.643 0-.02-.052-.49-.052-.785v-4.677h.684v7.001h-.123l-4.137-4.893zM72.301 79.586h-.219l-4.157-4.916-.338-.433c.018.163.037.376.037.533v4.743h-.824v-7.133h.218l4.157 4.915.342.452c-.014-.167-.03-.386-.03-.553v-4.742h.814v7.134zm-.157-.133h.025v-6.869h-.551v4.611c0 .231.031.57.045.715l.006.07v.195l-.118-.156-.05-.068c-.093-.129-.285-.396-.428-.571l-4.117-4.868h-.025v6.87h.562v-4.611c0-.188-.03-.464-.048-.629l-.014-.146v-.236l.122.203c.028.046.29.408.473.622l4.118 4.868z"/></g><g fill="#00718C"><path d="M75.15 75.982c0-2.088 1.549-3.545 3.566-3.545.998 0 1.844.285 2.415.896l-.499.499c-.449-.469-1.061-.733-1.916-.733-1.631 0-2.803 1.232-2.803 2.883s1.182 2.885 2.863 2.885c.948 0 1.621-.285 2.049-.632v-1.458h-2.059v-.652h2.751v2.446c-.509.499-1.437.958-2.741.958-2.068 0-3.626-1.457-3.626-3.547zM78.777 79.596c-2.14 0-3.693-1.52-3.693-3.613 0-2.092 1.527-3.611 3.633-3.611 1.051 0 1.902.317 2.463.918l.043.046-.592.592-.047-.049c-.459-.479-1.07-.713-1.867-.713-1.586 0-2.736 1.185-2.736 2.817s1.176 2.818 2.797 2.818c1.006 0 1.631-.32 1.982-.598v-1.359h-2.059v-.784h2.883v2.54l-.02.019c-.299.293-1.171.977-2.787.977zm-.061-7.093c-2.029 0-3.501 1.464-3.501 3.479 0 2.018 1.498 3.48 3.562 3.48 1.533 0 2.37-.627 2.676-.92v-2.352h-2.62v.521h2.059v1.555l-.024.02c-.363.295-1.021.646-2.09.646-1.697 0-2.929-1.24-2.929-2.949s1.206-2.949 2.868-2.949c.809 0 1.437.231 1.916.706l.407-.407c-.537-.544-1.337-.83-2.324-.83z"/></g><path fill="#00718C" d="M86.384 72.472h4.493v1.262h-3.057v1.815h2.78v1.283h-2.78v2.615h-1.437v-6.975z"/><path fill="#00718C" d="M92.113 76.004c0-2.037 1.58-3.535 3.565-3.535s3.565 1.498 3.565 3.535c0 2.035-1.58 3.534-3.565 3.534s-3.565-1.499-3.565-3.534zm5.672 0c0-1.287-.851-2.27-2.106-2.27-1.257 0-2.107.982-2.107 2.27 0 1.285.851 2.269 2.107 2.269 1.255-.001 2.106-.984 2.106-2.269z"/><path fill="#00718C" d="M101.145 76.955v-4.396h1.418v4.315c0 1.003.436 1.388 1.377 1.388.933 0 1.357-.385 1.357-1.388v-4.315h1.418v4.396c0 1.742-1.205 2.583-2.775 2.583-1.59 0-2.795-.841-2.795-2.583z"/><path fill="#00718C" d="M116.18 72.472h2.145c2.144 0 3.672 1.426 3.672 3.487 0 2.062-1.519 3.488-3.672 3.488h-2.145v-6.975zm2.072 5.714c1.549 0 2.257-.924 2.257-2.227s-.708-2.226-2.257-2.226h-.636v4.452h.636z"/><path fill="#00718C" d="M131.792 73.805h-1.965v-1.246h5.348v1.246h-1.965v5.643h-1.418v-5.643z"/><path fill="#00718C" d="M137.076 72.559h1.419v6.889h-1.419v-6.889z"/><path fill="#00718C" d="M140.307 76.004c0-2.037 1.58-3.535 3.565-3.535s3.565 1.498 3.565 3.535c0 2.035-1.58 3.534-3.565 3.534s-3.565-1.499-3.565-3.534zm5.673 0c0-1.287-.852-2.27-2.107-2.27s-2.107.982-2.107 2.27c0 1.285.852 2.269 2.107 2.269s2.107-.984 2.107-2.269z"/><path fill="#00718C" d="M150.688 75.422l.009 4.025h-1.327v-6.949h.142l4.186 3.961.008-3.9h1.327v6.949h-.142l-4.203-4.086z"/><path fill="#00718C" d="M122.592 79.604h1.438l.537-1.286h2.585l.537 1.286h1.49l-3.098-7.188h-.403l-3.086 7.188zm2.503-2.553l.773-1.842.759 1.842h-1.532z"/><path fill="#00718C" d="M175.603 41.683c0-.72.569-1.306 1.275-1.306.705 0 1.275.586 1.275 1.306 0 .706-.57 1.298-1.275 1.298-.706-.001-1.275-.585-1.275-1.298zm2.32 0c0-.6-.467-1.097-1.045-1.097-.571 0-1.043.497-1.043 1.097 0 .594.472 1.089 1.043 1.089.579-.001 1.045-.503 1.045-1.089zm-1.458-.638l.353-.022c.361 0 .533.181.533.405 0 .158-.083.315-.239.376l.33.503h-.277l-.278-.451-.083.008-.099-.008v.451h-.239v-1.262zm.24.616l.121.007c.181 0 .271-.082.271-.232 0-.119-.09-.203-.257-.203l-.135.008v.42z"/><g fill="#00718C"><path d="M42.093 50.236l-.417-.132c-2.417-.753-4.505-1.402-4.505-2.799v-.085c0-1.065.748-2.311 2.859-2.311 1.732 0 3.17.557 4.792 1.396l.123.063 3.179-3.809-.149-.109c-1.991-1.451-4.968-2.391-7.585-2.391-4.801 0-8.561 3.353-8.561 7.631v.084c0 4.364 3.785 5.764 7.325 6.733l.534.157c2.416.711 4.326 1.273 4.326 2.764v.084c0 1.392-1.561 2.014-3.106 2.014l-.192-.004c-2.434-.076-4.309-.783-6.69-2.525l-.124-.092-3.366 3.688.151.115c2.871 2.195 6.595 3.505 9.959 3.505 5.386 0 8.73-2.76 8.73-7.203v-.086c0-3.942-3.5-5.545-7.283-6.688zM63.144 46.895l3.55-4.558-7.534.228.01-9.198-5.502 7.597v1.615l-1.53.091-3.605 4.317 5.136-.031v10.48c0 4.486 2.232 6.76 6.631 6.76 1.881 0 4.62-.653 5.984-1.427l.18-.093-.16-.248c-.179-.283-.547-.867-.93-1.8-.308-.751-.527-1.788-.561-2.064l-.156.087c-.941.469-1.729.605-2.91.605-1.765 0-2.586-.835-2.586-2.628v-9.678l3.983-.055zM77.771 40.648l-.211-.002c-2.377 0-4.771.471-5.286.727l-.042.023-3.253 4.909.562-.258c1.793-.817 4.766-1.11 6.95-1.11l.625.01c2.856.078 4.852 2.321 4.852 5.453v.174c-1.59-.516-3.189-.854-5.617-.854-5.43 0-8.67 2.771-8.67 7.41v.084c0 4.803 3.959 6.989 7.638 6.989 2.669 0 4.945-.989 6.608-2.868v2.409h5.116v-13.261c0-5.907-3.639-9.768-9.272-9.835zm-1.104 19.399c-1.927 0-3.872-.953-3.872-3.085v-.083c0-2.035 1.73-3.252 4.626-3.252 1.616 0 3.294.299 4.627.82v1.137c0 2.586-2.261 4.463-5.381 4.463zM95.726 45.766v-5.672l-5.093 3.613v20.108h5.493v-8.714c0-6.42 4.438-8.699 8.241-8.699h.474v-5.782l-.171-.007c-3.605-.154-7.266 2.012-8.944 5.153zM138.576 40.68c-6.267 0-10.992 5.031-10.992 11.704v.085c0 6.678 4.234 11.132 11.049 11.617.403.029.806.045 1.195.045 1.999 0 3.792-.373 5.33-1.104 1.042-.5 2.026-1.012 2.526-1.471.435-.395.563-3.959.344-4.527-.066-.167-.176-.193-.235-.193l-.086.012-.046.033c-.225.162-.486.374-.764.597-.469.384-1.234.865-1.634 1.067-1.737.884-3.164 1.261-4.772 1.261-.352 0-.714-.021-1.081-.056-3.511-.359-5.822-2.318-6.368-5.387h16.216l.021-.257c.041-.466.077-.906.077-1.345-.001-6.013-3.335-12.081-10.78-12.081zm-.042 4.504c2.941 0 5.003 2.092 5.418 5.473h-10.957c.518-3.334 2.674-5.473 5.539-5.473zM117.958 50.123c.113-.619 5.63-6.191 9.051-9.537h-6.693l-6.989 6.8-.009-17.039-5.701 5.712.009 27.697 5.703-.003.01-10.646 8.955 10.648h7.345l-.204-.236c-4.516-5.053-11.3-12.797-11.477-13.396zM174.264 40.545l-5.811.018s-7.175 12.334-7.213 12.35c-1.017-7.616-6.348-12.019-7.238-12.293-.026-.009-1.588-.047-3.878-.047-1.055 0-1.908.008-1.908.009-.006-.001-1.406.015-1.573.105-.134.073.666.306 1.177.606 4.272 2.515 10.176 9.336 8.188 18.264-1.013 4.554-2.888 6.696-4.793 8.789-.06.083-.423.418-.276.711.132.264.545.254.545.254.229-.002 5.546-.006 5.546-.006s1.592-2.607 2.59-4.332c3.84-6.633 14.644-24.428 14.644-24.428z"/></g><g fill="#00B0DA"><path d="M13.517 70.843c-.258.411-2.27 3.412-1.871 3.771.723.653 2.49-.558 2.158-.782-.334-.225-.804.078-.849-.262-.043-.34.338-1.113.338-1.113 1.153-1.962 2.016-3.681 3.396-5.609 1.163-1.625 1.024-2.302-.222-.346-.917 1.158-2.102 3.029-2.95 4.341zM10.592 73.374l-.056-.011.056.011zM41.723 28.902c-.335.438-1.306 2.012-2.12 2.348-.422.174-1.783.322-2.068.337-2.312.114-.406.346.291.476.904.168 2.13-.107 2.13-.107.976-.209 1.307-1.187 1.433-1.566l.45-1.142c.078-.236-.028-.462-.116-.346zM121.682 27.88c1.118-.28-3.233-.88 4.348-.647 4.234.131 8.821-.812 18.71-.721 9.889.094 19.905.507 15.054-.613l-21.57-.543c-2.641.119-7.463-.094-10.73-.021 1.438-.031-17.365.184-16.891-.055-11.161-.19-30.714-.373-36.711-.176-6.466.214-10.275-.497-10.815-.304-.4.143-.496.837-.679.679-.181-.16-.231-.33-.231-.33-.39-1.777-1.53-4.477-2.07-7.023-1.781-8.396-3.562-14.266-4.555-16.647-.573-1.376-1.453-1.614-2.334-1.417-.783.176-1.791 1.682-2.496 2.658-.691.959-11.557 17.777-12.502 19.224 0 0-1.32 1.979-2.372 2.546l-3.938.666c-4.334.151-21.119.023-22.941.006-1.821-.018-4.505.124-4.505.124-3.888-.021-5.325 1.464-3.931 3.256 2.019 2.595 14.818 16.472 17.502 19.13 1.031 1.021 1.432 1.594.975 2.795-.729 1.912-12.679 21.007-15.27 25.162-2.934 4.703-2.859 5-3.376 6.463-.692 1.963 2.02 1.377 4.772.092 3.968-1.852 11.184-4.002 14.167-4.91 3.193-.971 6.188-1.417 7.581-1.294 2.084.183-.539-2.091-5.697-1.198l-1.774.056c-1.91-.149-3.858.218-2.571.497.693-.254.583-.146 1.764.125-2.396.133-4.331-.006-6.873.434-.812.139-2.145.584-2.033-.32.061-.499.463-.945 1.543-2.719 2.518-4.137 6.704-10.49 11.566-19.187.627-1.12 1.8-3.071 2.117-3.776.68-1.509.657-2.189-.584-3.5-1.184-1.248-2.405-2.523-3.197-3.354-.574-.602-.354.066-2.062-1.774 0 0 2.63 1.513 2.235.724s-2.024-.86-6.503-5.453c-2.234-2.292-5.089-5.559-6.282-6.659-.269-.248 1.896-.479 2.339-.445 3.188-.278-.213-.39 1.733-.716 4.817.113.661 1.07.661 1.07s-3.214.354-2.007.594c1.173.232 2.182.259 3.147.323 1.376.091 21.809-.354 23.203-.349.494.001 1.171-.24 2.051-1.092 2.773-2.68 7.557-10.836 10.76-15.238.834-1.148 1.482-2.068 2.038-2.104.491-.032.798.612 1.033 1.289.147.423.251.853.284 1.067.084.557 1.861 7.836 2.412 10.477.385 1.852.704 3.109 1.178 4.031.326.636.441 1.407 2.408 1.457 1.199.031 5.624.034 6.695.062 2.143.052 9.401.638 8.847-.282-.765-1.268 5.591-.938 10.062-.98 5.09.138 15.718.082 17.447.107 6.461.094.218-1.182 7.229-1.082-.002-.004 10.605.074 11.639-.185zM143.961 27.488c.137.311-2.787-.105-2.052.342 1.226.746 7.068.469 6.739.033s-4.822-.685-4.687-.375zM22.546 77.688c-.555-.015-1.547.648-1.5.853.045.206.998-.195 1.25-.139.455.102 1.857.109 1.447-.126-.297-.169-.645-.574-1.197-.588zM165.635 25.957c.497.188.283.525.13.852.794.127 1.915-.154 2.763-.148.59.004 1.796.183 2.018-.342-1.45-.174-3.169-.045-4.452-.533l-.459.171z"/></g></svg>